<svg width="30" height="30" viewBox="0 0 30 30" fill="none" xmlns="http://www.w3.org/2000/svg">
<path d="M28.0303 3.03033C28.3232 2.73743 28.3232 2.26256 28.0303 1.96967C27.7374 1.67678 27.2626 1.67678 26.9697 1.96967L27.5 2.5L28.0303 3.03033ZM3.98703 15.7869L4.62778 15.3971L3.98703 15.7869ZM3.06066 14.2641L2.39266 14.6051L2.40537 14.63L2.41991 14.6539L3.06066 14.2641ZM5.13751 7.49646L5.48769 8.15969H5.48769L5.13751 7.49646ZM8.9737 5.8975L9.17985 6.61862V6.61862L8.9737 5.8975ZM16.4269 5.17831L16.9572 4.64799L16.7737 4.46445L16.5159 4.43362L16.4269 5.17831ZM14.2129 26.0129L14.6027 25.3721L14.6027 25.3721L14.2129 26.0129ZM15.7358 26.9393L15.346 27.5801L15.3699 27.5946L15.3948 27.6073L15.7358 26.9393ZM22.5034 24.8625L21.8402 24.5123V24.5123L22.5034 24.8625ZM24.1024 21.0263L24.8235 21.2324V21.2324L24.1024 21.0263ZM24.8216 13.5731L25.5662 13.484L25.5354 13.2263L25.3519 13.0427L24.8216 13.5731ZM27.5 2.5L26.9697 1.96967L24.0229 4.91645L24.5532 5.44678L25.0836 5.97711L28.0303 3.03033L27.5 2.5ZM16.6953 5.44688L17.2256 5.97721C19.1027 4.10014 22.1459 4.10007 24.0229 5.97711L24.5532 5.44678L25.0836 4.91645C22.6207 2.45359 18.6277 2.45373 16.1649 4.91655L16.6953 5.44688ZM24.5532 5.44678L24.0229 5.97711C25.9 7.85417 25.9 10.8976 24.023 12.7746L24.5533 13.305L25.0836 13.8353C27.5465 11.3724 27.5464 7.37928 25.0836 4.91645L24.5532 5.44678ZM3.98703 15.7869L4.62778 15.3971L3.70142 13.8743L3.06066 14.2641L2.41991 14.6539L3.34628 16.1767L3.98703 15.7869ZM5.13751 7.49646L5.48769 8.15969C6.64685 7.54766 7.92597 6.97707 9.17985 6.61862L8.9737 5.8975L8.76755 5.17639C7.37967 5.57315 6.00023 6.19282 4.78732 6.83324L5.13751 7.49646ZM8.9737 5.8975L9.17985 6.61862C11.0897 6.07262 12.8877 5.89843 14.2106 5.86179C14.8708 5.84351 15.4093 5.85956 15.7798 5.87988C15.965 5.89003 16.108 5.90123 16.203 5.90969C16.2505 5.91391 16.286 5.91746 16.3087 5.91983C16.32 5.92102 16.3282 5.92192 16.3331 5.92247C16.3355 5.92275 16.3371 5.92293 16.3379 5.92302C16.3383 5.92307 16.3385 5.92309 16.3385 5.92309C16.3385 5.92309 16.3384 5.92308 16.3383 5.92307C16.3382 5.92306 16.3381 5.92305 16.3381 5.92304C16.3379 5.92303 16.3378 5.92301 16.4269 5.17831C16.5159 4.43362 16.5158 4.4336 16.5156 4.43358C16.5155 4.43357 16.5153 4.43354 16.5151 4.43352C16.5148 4.43349 16.5144 4.43344 16.514 4.43339C16.5131 4.43329 16.512 4.43316 16.5107 4.43301C16.5081 4.43271 16.5047 4.43232 16.5004 4.43184C16.4919 4.43088 16.48 4.42958 16.4649 4.428C16.4347 4.42483 16.3915 4.42054 16.3361 4.4156C16.2252 4.40572 16.0652 4.39326 15.8619 4.38213C15.4557 4.35986 14.8757 4.3428 14.1691 4.36236C12.7585 4.40143 10.8298 4.58684 8.76755 5.17639L8.9737 5.8975ZM3.06066 14.2641L3.72867 13.9231C2.68824 11.8848 3.3699 9.27788 5.48769 8.15969L5.13751 7.49646L4.78732 6.83324C1.88513 8.36559 1.01033 11.897 2.39266 14.6051L3.06066 14.2641ZM14.2129 26.0129L13.8231 26.6536L15.346 27.5801L15.7358 26.9393L16.1256 26.2986L14.6027 25.3721L14.2129 26.0129ZM22.5034 24.8625L23.1667 25.2127C23.8071 23.9997 24.4267 22.6203 24.8235 21.2324L24.1024 21.0263L23.3813 20.8201C23.0228 22.074 22.4522 23.3531 21.8402 24.5123L22.5034 24.8625ZM24.1024 21.0263L24.8235 21.2324C25.413 19.1701 25.5984 17.2414 25.6375 15.8309C25.6571 15.1243 25.64 14.5442 25.6177 14.138C25.6066 13.9348 25.5941 13.7748 25.5843 13.6639C25.5793 13.6084 25.575 13.5652 25.5719 13.535C25.5703 13.5199 25.569 13.508 25.568 13.4995C25.5676 13.4952 25.5672 13.4918 25.5669 13.4892C25.5667 13.4879 25.5666 13.4868 25.5665 13.486C25.5664 13.4855 25.5664 13.4851 25.5663 13.4848C25.5663 13.4846 25.5663 13.4844 25.5663 13.4844C25.5663 13.4842 25.5662 13.484 24.8216 13.5731C24.0769 13.6621 24.0768 13.662 24.0768 13.6618C24.0768 13.6618 24.0768 13.6617 24.0768 13.6616C24.0768 13.6615 24.0768 13.6614 24.0768 13.6614C24.0768 13.6614 24.0768 13.6616 24.0768 13.662C24.0769 13.6628 24.0771 13.6644 24.0774 13.6668C24.0779 13.6717 24.0788 13.6799 24.08 13.6913C24.0824 13.714 24.086 13.7494 24.0902 13.7969C24.0986 13.8919 24.1098 14.0349 24.12 14.2201C24.1403 14.5907 24.1564 15.1291 24.1381 15.7893C24.1014 17.1123 23.9273 18.9102 23.3813 20.8201L24.1024 21.0263ZM15.7358 26.9393L15.3948 27.6073C18.1029 28.9897 21.6343 28.1149 23.1667 25.2127L22.5034 24.8625L21.8402 24.5123C20.722 26.6301 18.1151 27.3118 16.0768 26.2713L15.7358 26.9393ZM16.4269 5.17831L15.8965 5.70864L24.2912 14.1034L24.8216 13.5731L25.3519 13.0427L16.9572 4.64799L16.4269 5.17831ZM3.98703 15.7869L3.34628 16.1767C5.95006 20.4569 9.54291 24.0498 13.8231 26.6536L14.2129 26.0129L14.6027 25.3721C10.5276 22.893 7.10682 19.4723 4.62778 15.3971L3.98703 15.7869Z" fill="black"/>
</svg>
