<svg width="30" height="30" viewBox="0 0 30 30" fill="none" xmlns="http://www.w3.org/2000/svg">
<path d="M5 12.5C5 7.78595 5 5.42893 6.46447 3.96447C7.92893 2.5 10.286 2.5 15 2.5C19.714 2.5 22.0711 2.5 23.5355 3.96447C25 5.42893 25 7.78595 25 12.5V15C25 19.714 25 22.0711 23.5355 23.5355C22.0711 25 19.714 25 15 25C10.286 25 7.92893 25 6.46447 23.5355C5 22.0711 5 19.714 5 15V12.5Z" stroke="black" stroke-width="1.5"/>
<path d="M5 16.25H25" stroke="black" stroke-width="1.5" stroke-linecap="round" stroke-linejoin="round"/>
<path d="M19.375 20H21.25" stroke="black" stroke-width="1.5" stroke-linecap="round" stroke-linejoin="round"/>
<path d="M8.75 20H10.625" stroke="black" stroke-width="1.5" stroke-linecap="round" stroke-linejoin="round"/>
<path d="M7.5 24.375V26.25C7.5 26.9404 8.05964 27.5 8.75 27.5H10.625C11.3154 27.5 11.875 26.9404 11.875 26.25V25" stroke="black" stroke-width="1.5" stroke-linecap="round" stroke-linejoin="round"/>
<path d="M22.5 24.375V26.25C22.5 26.9404 21.9404 27.5 21.25 27.5H19.375C18.6846 27.5 18.125 26.9404 18.125 26.25V25" stroke="black" stroke-width="1.5" stroke-linecap="round" stroke-linejoin="round"/>
<path d="M25 11.25H26.25C26.9404 11.25 27.5 11.8096 27.5 12.5V13.75C27.5 14.1434 27.3148 14.5139 27 14.75L25 16.25" stroke="black" stroke-width="1.5" stroke-linecap="round" stroke-linejoin="round"/>
<path d="M5 11.25H3.75C3.05964 11.25 2.5 11.8096 2.5 12.5V13.75C2.5 14.1434 2.68524 14.5139 3 14.75L5 16.25" stroke="black" stroke-width="1.5" stroke-linecap="round" stroke-linejoin="round"/>
<path d="M24.375 6.25H5.625" stroke="black" stroke-width="1.5" stroke-linecap="round"/>
</svg>
