<svg width="30" height="30" viewBox="0 0 30 30" fill="none" xmlns="http://www.w3.org/2000/svg">
<path d="M3.75 15C3.75 19.714 3.75 24.5711 5.39752 26.0355C7.04505 27.5 9.6967 27.5 15 27.5C20.3033 27.5 22.955 27.5 24.6025 26.0355C26.25 24.5711 26.25 19.714 26.25 15" stroke="black" stroke-width="1.5"/>
<path d="M18.3254 17.7524L25.8345 15.4997C26.5789 15.2763 26.9511 15.1647 27.1872 14.8971C27.2332 14.8449 27.2748 14.789 27.3115 14.73C27.5 14.4269 27.5 14.0383 27.5 13.2612C27.5 10.1985 27.5 8.66712 26.6588 7.63324C26.4971 7.43453 26.3155 7.25291 26.1168 7.09123C25.0829 6.25 23.5515 6.25 20.4888 6.25H9.51116C6.44847 6.25 4.91712 6.25 3.88324 7.09123C3.68453 7.25291 3.50291 7.43453 3.34123 7.63324C2.5 8.66712 2.5 10.1985 2.5 13.2612C2.5 14.0383 2.5 14.4269 2.68847 14.73C2.72518 14.789 2.76676 14.8449 2.81277 14.8971C3.04894 15.1647 3.42113 15.2763 4.16551 15.4997L11.6746 17.7524" stroke="black" stroke-width="1.5"/>
<path d="M8.125 6.25C9.1543 6.22392 10.1991 5.56864 10.5493 4.6004C10.5601 4.57062 10.5711 4.53748 10.5932 4.47122L10.6253 4.375C10.678 4.2168 10.7044 4.13767 10.7326 4.0675C11.0928 3.1714 11.937 2.56296 12.901 2.50457C12.9765 2.5 13.0599 2.5 13.2267 2.5H16.7739C16.9406 2.5 17.024 2.5 17.0995 2.50457C18.0635 2.56296 18.9077 3.1714 19.268 4.0675C19.2962 4.13768 19.3225 4.21678 19.3753 4.375L19.4074 4.47122C19.4293 4.5371 19.4405 4.5707 19.4513 4.6004C19.8015 5.56864 20.8457 6.22392 21.875 6.25" stroke="black" stroke-width="1.5"/>
<path d="M17.5 15.625H12.5C12.1548 15.625 11.875 15.9048 11.875 16.25V18.9519C11.875 19.2074 12.0306 19.4372 12.2679 19.5322L13.143 19.8822C14.3351 20.359 15.6649 20.359 16.857 19.8822L17.7321 19.5322C17.9694 19.4372 18.125 19.2074 18.125 18.9519V16.25C18.125 15.9048 17.8452 15.625 17.5 15.625Z" stroke="black" stroke-width="1.5" stroke-linecap="round"/>
</svg>
