<svg width="30" height="30" viewBox="0 0 30 30" fill="none" xmlns="http://www.w3.org/2000/svg">
<path d="M20 13.125C20 14.1605 19.4404 15 18.75 15C18.0596 15 17.5 14.1605 17.5 13.125C17.5 12.0895 18.0596 11.25 18.75 11.25C19.4404 11.25 20 12.0895 20 13.125Z" fill="black"/>
<ellipse cx="11.25" cy="13.125" rx="1.25" ry="1.875" fill="black"/>
<path d="M27.5 24.6537V15.3757C27.5 8.26466 21.9036 2.5 15 2.5C8.09644 2.5 2.5 8.26466 2.5 15.3757V24.6537C2.5 26.3067 4.18872 27.3817 5.624 26.6425C6.78407 26.045 8.166 26.1337 9.24517 26.8747C10.4592 27.7084 12.0408 27.7084 13.2548 26.8747L13.6957 26.572C14.4855 26.0296 15.5145 26.0296 16.3043 26.572L16.7452 26.8747C17.9592 27.7084 19.5408 27.7084 20.7548 26.8747C21.834 26.1337 23.2159 26.045 24.376 26.6425C25.8113 27.3817 27.5 26.3067 27.5 24.6537Z" stroke="black" stroke-width="1.5"/>
</svg>
