<svg width="30" height="30" viewBox="0 0 30 30" fill="none" xmlns="http://www.w3.org/2000/svg">
<path d="M23.75 22.5H24.5V22.5H23.75ZM6.25 18.2299H7C7 17.9318 6.82345 17.662 6.55028 17.5427L6.25 18.2299ZM23.75 18.2299L23.4497 17.5427C23.1765 17.662 23 17.9318 23 18.2299H23.75ZM19.875 8.75C19.875 9.16421 20.2108 9.5 20.625 9.5C21.0392 9.5 21.375 9.16421 21.375 8.75H20.625H19.875ZM8.625 8.75C8.625 9.16421 8.96079 9.5 9.375 9.5C9.78921 9.5 10.125 9.16421 10.125 8.75H9.375H8.625ZM8.75 6.25V5.5C4.88401 5.5 1.75 8.63401 1.75 12.5H2.5H3.25C3.25 9.46243 5.71243 7 8.75 7V6.25ZM21.25 6.25V7C24.2876 7 26.75 9.46243 26.75 12.5H27.5H28.25C28.25 8.63401 25.116 5.5 21.25 5.5V6.25ZM18.75 27.5V26.75H11.25V27.5V28.25H18.75V27.5ZM11.25 27.5V26.75C10.0503 26.75 9.22595 26.7484 8.60676 26.6652C8.00914 26.5848 7.7161 26.441 7.51256 26.2374L6.98223 26.7678L6.4519 27.2981C6.9806 27.8268 7.64293 28.0491 8.40688 28.1518C9.14926 28.2516 10.0927 28.25 11.25 28.25V27.5ZM6.25 22.5H5.5C5.5 23.6573 5.49841 24.6007 5.59822 25.3431C5.70093 26.1071 5.92321 26.7694 6.4519 27.2981L6.98223 26.7678L7.51256 26.2374C7.30902 26.0339 7.16519 25.7409 7.08484 25.1432C7.00159 24.524 7 23.6997 7 22.5H6.25ZM23.75 22.5H23C23 23.6997 22.9984 24.524 22.9152 25.1432C22.8348 25.7409 22.691 26.0339 22.4874 26.2374L23.0178 26.7678L23.5481 27.2981C24.0768 26.7694 24.2991 26.1071 24.4018 25.3431C24.5016 24.6007 24.5 23.6573 24.5 22.5H23.75ZM18.75 27.5V28.25C19.9073 28.25 20.8507 28.2516 21.5931 28.1518C22.3571 28.0491 23.0194 27.8268 23.5481 27.2981L23.0178 26.7678L22.4874 26.2374C22.2839 26.441 21.9909 26.5848 21.3932 26.6652C20.774 26.7484 19.9497 26.75 18.75 26.75V27.5ZM8.75 6.25V7C9.02632 7 9.29744 7.02032 9.56204 7.05943L9.6717 6.31749L9.78137 5.57555C9.44439 5.52574 9.09997 5.5 8.75 5.5V6.25ZM15 2.5V1.75C12.1946 1.75 9.81432 3.56161 8.96143 6.07662L9.6717 6.31749L10.382 6.55835C11.0347 4.63353 12.8568 3.25 15 3.25V2.5ZM9.6717 6.31749L8.96143 6.07662C8.74309 6.72048 8.625 7.40972 8.625 8.125H9.375H10.125C10.125 7.57569 10.2156 7.04907 10.382 6.55835L9.6717 6.31749ZM21.25 6.25V5.5C20.9 5.5 20.5556 5.52574 20.2186 5.57555L20.3283 6.31749L20.438 7.05943C20.7026 7.02032 20.9737 7 21.25 7V6.25ZM15 2.5V3.25C17.1432 3.25 18.9653 4.63353 19.618 6.55835L20.3283 6.31749L21.0386 6.07662C20.1857 3.56161 17.8054 1.75 15 1.75V2.5ZM20.3283 6.31749L19.618 6.55835C19.7844 7.04908 19.875 7.57569 19.875 8.125H20.625H21.375C21.375 7.40972 21.2569 6.72048 21.0386 6.07662L20.3283 6.31749ZM6.25 22.5H7V18.2299H6.25H5.5V22.5H6.25ZM6.25 18.2299L6.55028 17.5427C4.60621 16.6933 3.25 14.7542 3.25 12.5H2.5H1.75C1.75 15.3716 3.47902 17.8377 5.94972 18.9172L6.25 18.2299ZM23.75 18.2299H23L23 22.5H23.75H24.5L24.5 18.2299L23.75 18.2299ZM27.5 12.5H26.75C26.75 14.7542 25.3938 16.6933 23.4497 17.5427L23.75 18.2299L24.0503 18.9172C26.521 17.8377 28.25 15.3716 28.25 12.5H27.5ZM20.625 8.125H19.875V8.75H20.625H21.375V8.125H20.625ZM9.375 8.125H8.625V8.75H9.375H10.125V8.125H9.375Z" fill="black"/>
<path d="M6.25 22.5H23.75" stroke="black" stroke-width="1.5" stroke-linecap="round" stroke-linejoin="round"/>
</svg>
