<svg width="30" height="30" viewBox="0 0 30 30" fill="none" xmlns="http://www.w3.org/2000/svg">
<path d="M13.75 13.125C13.75 9.32804 16.828 6.25 20.625 6.25C24.422 6.25 27.5 9.32804 27.5 13.125C27.5 16.922 24.422 20 20.625 20C16.828 20 13.75 16.922 13.75 13.125Z" stroke="black" stroke-width="1.5"/>
<path d="M20.625 25V20M20.625 25H24.375M20.625 25H16.875" stroke="black" stroke-width="1.5" stroke-linecap="round" stroke-linejoin="round"/>
<path d="M2.5 13.75V13C2.08579 13 1.75 13.3358 1.75 13.75H2.5ZM10 13.75H10.75C10.75 13.3358 10.4142 13 10 13V13.75ZM2.5 13.75V14.5H10V13.75V13H2.5V13.75ZM10 13.75H9.25V21.25H10H10.75V13.75H10ZM2.5 21.25H3.25V13.75H2.5H1.75V21.25H2.5ZM6.25 25V24.25C4.59315 24.25 3.25 22.9069 3.25 21.25H2.5H1.75C1.75 23.7353 3.76472 25.75 6.25 25.75V25ZM10 21.25H9.25C9.25 22.9069 7.90685 24.25 6.25 24.25V25V25.75C8.73528 25.75 10.75 23.7353 10.75 21.25H10Z" fill="black"/>
<path d="M3.75 13.7501H8.75V7.02261C8.75 6.09338 7.77211 5.48901 6.94098 5.90457L4.44098 7.15458C4.0175 7.36632 3.75 7.79914 3.75 8.27261V13.7501Z" stroke="black" stroke-width="1.5"/>
</svg>
