<svg width="30" height="30" viewBox="0 0 30 30" fill="none" xmlns="http://www.w3.org/2000/svg">
<path d="M27.0112 16.9519L27.2977 13.9079C27.5227 11.5171 27.6353 10.3217 27.2263 9.82759C27.005 9.56029 26.7042 9.3965 26.3825 9.36825C25.7879 9.31602 25.0411 10.1661 23.5477 11.8663C22.7753 12.7456 22.3891 13.1853 21.9583 13.2533C21.7196 13.2911 21.4764 13.2523 21.2559 13.1414C20.8581 12.9412 20.5929 12.3976 20.0624 11.3106L17.2663 5.58107C16.2639 3.52702 15.7627 2.5 15 2.5C14.2373 2.5 13.7361 3.52702 12.7337 5.58107L9.93759 11.3106C9.40712 12.3976 9.14189 12.9412 8.74407 13.1414C8.52365 13.2523 8.28043 13.2911 8.04172 13.2533C7.61089 13.1853 7.22471 12.7456 6.45234 11.8663C4.95885 10.1661 4.21211 9.31602 3.61748 9.36825C3.29582 9.3965 2.99497 9.56029 2.77373 9.82759C2.36475 10.3217 2.47725 11.5171 2.70226 13.9079L2.98875 16.9519C3.46082 21.9677 3.69685 24.4756 5.17512 25.9878C6.65339 27.5 8.86896 27.5 13.3001 27.5H16.6999C21.131 27.5 23.3466 27.5 24.8249 25.9878C26.3032 24.4756 26.5392 21.9677 27.0112 16.9519Z" stroke="black" stroke-width="1.5"/>
</svg>
