<svg width="30" height="30" viewBox="0 0 30 30" fill="none" xmlns="http://www.w3.org/2000/svg">
<path d="M16.1758 13.1408L15.7925 13.7798V13.7798L16.1758 13.1408ZM15.5132 10.0272L16.256 10.1306C16.3059 9.71941 16.0137 9.33979 15.6035 9.2827L15.5132 10.0272ZM15.3955 12.0554L14.6702 12.2281L15.3955 12.0554ZM20.1147 12.7121L20.7747 13.0775L20.1147 12.7121ZM19.1013 13.5479L19.3194 14.2706V14.2706L19.1013 13.5479ZM20.145 4.94289L20.5282 4.30391V4.30391L20.145 4.94289ZM20.9253 6.02834L21.6506 5.85564L20.9253 6.02834ZM17.2194 4.53579L17.0013 3.81313V3.81313L17.2194 4.53579ZM15.8361 7.36466L15.7458 8.10921C16.156 8.1663 16.5291 7.87923 16.5789 7.46803L15.8361 7.36466ZM16.2061 5.37164L15.5461 5.00619L16.2061 5.37164ZM3.53986 11.3825L3.1566 12.0215V12.0215L3.53986 11.3825ZM2.75952 10.297L2.03425 10.4697L2.75952 10.297ZM7.84874 8.96072L7.93904 8.21618C7.52878 8.15909 7.15577 8.44615 7.1059 8.85735L7.84874 8.96072ZM7.47875 10.9537L8.13875 11.3192L7.47875 10.9537ZM6.46538 11.7896L6.68349 12.5123V12.5123L6.46538 11.7896ZM7.50903 3.18456L7.89229 2.54558V2.54558L7.50903 3.18456ZM8.17167 6.29814L7.42883 6.19477C7.37895 6.60597 7.67111 6.9856 8.08137 7.04269L8.17167 6.29814ZM8.28937 4.27001L9.01464 4.09732L8.28937 4.27001ZM4.58352 2.77747L4.3654 2.05481V2.05481L4.58352 2.77747ZM3.57015 3.61332L2.91015 3.24787L3.57015 3.61332ZM20.8614 7.6127L20.1186 7.50933L19.688 11.0594L20.4308 11.1628L21.1737 11.2662L21.6043 7.71607L20.8614 7.6127ZM17.6222 13.4795L17.7125 12.7349C17.3155 12.6797 17.0576 12.6434 16.8616 12.6014C16.6731 12.561 16.5988 12.5263 16.5591 12.5018L16.1758 13.1408L15.7925 13.7798C16.041 13.9328 16.3037 14.0137 16.5734 14.0715C16.8354 14.1276 17.1566 14.1718 17.5319 14.224L17.6222 13.4795ZM15.5132 10.0272L14.7703 9.92388C14.7207 10.3328 14.6674 10.7716 14.6381 11.1521C14.6119 11.4939 14.5918 11.9169 14.6702 12.2281L15.3955 12.0554L16.1207 11.8827C16.1217 11.8866 16.1123 11.8412 16.1115 11.7179C16.1108 11.6053 16.1173 11.4629 16.1303 11.293C16.1565 10.9522 16.2053 10.5487 16.256 10.1306L15.5132 10.0272ZM16.1758 13.1408L16.5591 12.5018C16.354 12.3755 16.19 12.1576 16.1207 11.8827L15.3955 12.0554L14.6702 12.2281C14.8318 12.8698 15.2292 13.4328 15.7925 13.7798L16.1758 13.1408ZM20.4308 11.1628L19.688 11.0594C19.6367 11.4825 19.6021 11.7649 19.5617 11.9812C19.5224 12.1919 19.4862 12.2879 19.4547 12.3466L20.1147 12.7121L20.7747 13.0775C20.9089 12.8275 20.9806 12.5625 21.0329 12.2824C21.0841 12.0081 21.1247 11.6702 21.1737 11.2662L20.4308 11.1628ZM17.6222 13.4795L17.5319 14.224C17.9071 14.2762 18.2282 14.3214 18.4949 14.3389C18.7694 14.3568 19.0427 14.3505 19.3194 14.2706L19.1013 13.5479L18.8832 12.8253C18.839 12.838 18.7588 12.8512 18.567 12.8387C18.3674 12.8256 18.1094 12.7902 17.7125 12.7349L17.6222 13.4795ZM20.1147 12.7121L19.4547 12.3466C19.3221 12.5935 19.1116 12.7592 18.8832 12.8253L19.1013 13.5479L19.3194 14.2706C19.9468 14.0893 20.4653 13.6537 20.7747 13.0775L20.1147 12.7121ZM18.6986 4.60422L18.6083 5.34877C19.0052 5.404 19.2631 5.44035 19.4592 5.48234C19.6476 5.52269 19.722 5.5574 19.7617 5.58187L20.145 4.94289L20.5282 4.30391C20.2798 4.15088 20.017 4.06998 19.7474 4.01223C19.4853 3.95612 19.1641 3.91189 18.7889 3.85968L18.6986 4.60422ZM20.8614 7.6127L21.6043 7.71607C21.6533 7.31207 21.6946 6.97422 21.7105 6.695C21.7268 6.40992 21.7207 6.13405 21.6506 5.85564L20.9253 6.02834L20.2 6.20103C20.2165 6.26638 20.2286 6.36915 20.2164 6.58355C20.2038 6.80381 20.1699 7.08626 20.1186 7.50933L20.8614 7.6127ZM20.145 4.94289L19.7617 5.58187C19.9668 5.7082 20.1308 5.92607 20.2 6.20103L20.9253 6.02834L21.6506 5.85564C21.4889 5.21392 21.0915 4.65089 20.5282 4.30391L20.145 4.94289ZM18.6986 4.60422L18.7889 3.85968C18.4137 3.80747 18.0926 3.76231 17.8259 3.74485C17.5514 3.72687 17.278 3.73317 17.0013 3.81313L17.2194 4.53579L17.4376 5.25846C17.4818 5.24567 17.562 5.23247 17.7538 5.24503C17.9534 5.2581 18.2114 5.29353 18.6083 5.34877L18.6986 4.60422ZM15.8361 7.36466L16.5789 7.46803C16.6296 7.0499 16.6787 6.64652 16.7347 6.30981C16.7626 6.14203 16.7903 6.00254 16.8179 5.89385C16.848 5.77487 16.868 5.7336 16.8661 5.7371L16.2061 5.37164L15.5461 5.00619C15.3961 5.28557 15.3146 5.69999 15.2584 6.03769C15.1959 6.41355 15.1428 6.85235 15.0932 7.2613L15.8361 7.36466ZM17.2194 4.53579L17.0013 3.81313C16.374 3.99443 15.8554 4.43 15.5461 5.00619L16.2061 5.37164L16.8661 5.7371C16.9986 5.49022 17.2091 5.32447 17.4376 5.25846L17.2194 4.53579ZM2.82341 8.71269L3.56625 8.81605L3.99682 5.26595L3.25398 5.16258L2.51113 5.05921L2.08056 8.60932L2.82341 8.71269ZM4.98623 11.7212L5.07654 10.9766C4.67961 10.9214 4.42171 10.885 4.22564 10.843C4.0372 10.8027 3.96285 10.768 3.92312 10.7435L3.53986 11.3825L3.1566 12.0215C3.40503 12.1745 3.6678 12.2554 3.93747 12.3132C4.1995 12.3693 4.52072 12.4135 4.89593 12.4657L4.98623 11.7212ZM2.82341 8.71269L2.08056 8.60932C2.03156 9.01332 1.99023 9.35116 1.97429 9.63039C1.95802 9.91546 1.96413 10.1913 2.03425 10.4697L2.75952 10.297L3.48479 10.1244C3.46833 10.059 3.45623 9.95623 3.46847 9.74183C3.48104 9.52158 3.51494 9.23913 3.56625 8.81605L2.82341 8.71269ZM3.53986 11.3825L3.92312 10.7435C3.71803 10.6172 3.55404 10.3993 3.48479 10.1244L2.75952 10.297L2.03425 10.4697C2.19588 11.1115 2.59329 11.6745 3.1566 12.0215L3.53986 11.3825ZM7.84874 8.96072L7.1059 8.85735C7.05519 9.27548 7.00611 9.67886 6.95012 10.0156C6.92222 10.1834 6.89448 10.3228 6.86695 10.4315C6.83682 10.5505 6.81687 10.5918 6.81874 10.5883L7.47875 10.9537L8.13875 11.3192C8.28874 11.0398 8.37026 10.6254 8.42641 10.2877C8.48891 9.91184 8.54198 9.47303 8.59158 9.06409L7.84874 8.96072ZM4.98623 11.7212L4.89593 12.4657C5.27115 12.5179 5.59225 12.5631 5.85897 12.5805C6.13347 12.5985 6.40681 12.5922 6.68349 12.5123L6.46538 11.7896L6.24727 11.0669C6.20302 11.0797 6.12286 11.0929 5.93105 11.0804C5.73147 11.0673 5.47346 11.0319 5.07654 10.9766L4.98623 11.7212ZM7.47875 10.9537L6.81874 10.5883C6.6862 10.8352 6.47569 11.0009 6.24727 11.0669L6.46538 11.7896L6.68349 12.5123C7.31088 12.331 7.8294 11.8954 8.13875 11.3192L7.47875 10.9537ZM6.06266 2.8459L5.97236 3.59044C6.36929 3.64568 6.62718 3.68203 6.82326 3.72402C7.0117 3.76437 7.08605 3.79907 7.12577 3.82354L7.50903 3.18456L7.89229 2.54558C7.64386 2.39256 7.3811 2.31165 7.11143 2.25391C6.84939 2.1978 6.52818 2.15357 6.15296 2.10136L6.06266 2.8459ZM8.17167 6.29814L8.91451 6.40151C8.96411 5.99257 9.01747 5.5538 9.0467 5.17331C9.07297 4.83146 9.09301 4.40848 9.01464 4.09732L8.28937 4.27001L7.5641 4.44271C7.56312 4.43881 7.57257 4.48417 7.57332 4.60744C7.574 4.72006 7.56756 4.86251 7.55451 5.03236C7.52832 5.37322 7.47954 5.77664 7.42883 6.19477L8.17167 6.29814ZM7.50903 3.18456L7.12577 3.82354C7.33087 3.94988 7.49485 4.16775 7.5641 4.44271L8.28937 4.27001L9.01464 4.09732C8.85301 3.4556 8.4556 2.89257 7.89229 2.54558L7.50903 3.18456ZM6.06266 2.8459L6.15296 2.10136C5.77775 2.04914 5.45664 2.00399 5.18992 1.98653C4.91543 1.96855 4.64209 1.97485 4.3654 2.05481L4.58352 2.77747L4.80163 3.50013C4.84587 3.48735 4.92603 3.47414 5.11784 3.48671C5.31743 3.49978 5.57543 3.53521 5.97236 3.59044L6.06266 2.8459ZM3.25398 5.16258L3.99682 5.26595C4.04813 4.84288 4.08273 4.56052 4.12312 4.34414C4.16243 4.13351 4.19865 4.03746 4.23015 3.97878L3.57015 3.61332L2.91015 3.24787C2.77594 3.49784 2.70423 3.76288 2.65196 4.04295C2.60076 4.31726 2.56013 4.65521 2.51113 5.05921L3.25398 5.16258ZM4.58352 2.77747L4.3654 2.05481C3.73802 2.23611 3.21949 2.67168 2.91015 3.24787L3.57015 3.61332L4.23015 3.97878C4.36269 3.7319 4.5732 3.56614 4.80163 3.50013L4.58352 2.77747ZM8.17167 6.29814L8.08137 7.04269L15.7458 8.10921L15.8361 7.36466L15.9264 6.62012L8.26197 5.5536L8.17167 6.29814ZM15.5132 10.0272L15.6035 9.2827L7.93904 8.21618L7.84874 8.96072L7.75844 9.70527L15.4229 10.7718L15.5132 10.0272Z" fill="black"/>
<path d="M14.1631 26.2644L14.6199 26.8472V26.8472L14.1631 26.2644ZM14.4356 23.0843L13.7147 23.2912C13.6142 22.8894 13.8555 22.471 14.2536 22.3567L14.4356 23.0843ZM14.8026 25.0779L15.5404 25.1497L14.8026 25.0779ZM10.2059 26.3972L9.60054 26.8545L10.2059 26.3972ZM11.3136 27.0822L11.1901 27.8316V27.8316L11.3136 27.0822ZM9.21686 18.7006L8.76012 18.1178L8.76012 18.1178L9.21686 18.7006ZM8.57735 19.887L7.83962 19.8152L8.57735 19.887ZM12.0664 17.8827L12.1899 17.1334L12.1899 17.1334L12.0664 17.8827ZM13.7869 20.4908L13.9689 21.2184C13.5707 21.3327 13.1665 21.0996 13.066 20.6977L13.7869 20.4908ZM13.1741 18.5677L13.7795 18.1104L13.1741 18.5677ZM26.4711 22.7319L26.9278 23.3147L26.9278 23.3147L26.4711 22.7319ZM27.1106 21.5454L27.8483 21.6172L27.1106 21.5454ZM21.9011 20.9416L21.7191 20.214C22.1172 20.0998 22.5215 20.3329 22.622 20.7347L21.9011 20.9416ZM22.5139 22.8647L21.9085 23.322L22.5139 22.8647ZM23.6215 23.5497L23.498 24.2991V24.2991L23.6215 23.5497ZM21.5248 15.1681L21.0681 14.5853L21.0681 14.5853L21.5248 15.1681ZM21.2523 18.3482L21.9732 18.1413C22.0737 18.5431 21.8325 18.9615 21.4343 19.0757L21.2523 18.3482ZM20.8853 16.3545L20.1476 16.2827L20.8853 16.3545ZM24.3744 14.3502L24.4979 13.6009L24.4979 13.6009L24.3744 14.3502ZM25.482 15.0352L26.0874 14.5779L25.482 15.0352ZM8.83626 21.4484L9.55715 21.2415L10.4222 24.6995L9.70128 24.9064L8.98038 25.1133L8.11536 21.6553L8.83626 21.4484ZM12.7713 26.8049L12.5893 26.0773C12.9758 25.9664 13.2273 25.8938 13.4168 25.8242C13.599 25.7574 13.6693 25.7121 13.7064 25.6816L14.1631 26.2644L14.6199 26.8472C14.3933 27.0334 14.1437 27.1505 13.884 27.2457C13.6315 27.3383 13.3189 27.4276 12.9533 27.5325L12.7713 26.8049ZM14.4356 23.0843L15.1565 22.8774C15.2561 23.2757 15.3632 23.7032 15.4392 24.0764C15.5074 24.4114 15.5798 24.829 15.5404 25.1497L14.8026 25.0779L14.0649 25.0061C14.0643 25.0109 14.0682 24.9653 14.0537 24.8432C14.0405 24.7317 14.0166 24.5917 13.9827 24.4253C13.9147 24.0913 13.8166 23.6985 13.7147 23.2912L14.4356 23.0843ZM14.1631 26.2644L13.7064 25.6816C13.8953 25.5263 14.0304 25.2869 14.0649 25.0061L14.8026 25.0779L15.5404 25.1497C15.4592 25.8103 15.1342 26.4244 14.6199 26.8472L14.1631 26.2644ZM9.70128 24.9064L10.4222 24.6995C10.5253 25.1116 10.5944 25.3863 10.661 25.5948C10.7259 25.7977 10.7733 25.887 10.8113 25.94L10.2059 26.3972L9.60054 26.8545C9.43614 26.625 9.33206 26.3717 9.24556 26.1011C9.16085 25.8362 9.0788 25.5067 8.98038 25.1133L9.70128 24.9064ZM12.7713 26.8049L12.9533 27.5325C12.5877 27.6374 12.2753 27.7276 12.0134 27.7826C11.7441 27.8392 11.4732 27.8715 11.1901 27.8316L11.3136 27.0822L11.4371 26.3329C11.4835 26.3394 11.5654 26.341 11.7545 26.3013C11.9511 26.26 12.2028 26.1883 12.5893 26.0773L12.7713 26.8049ZM10.2059 26.3972L10.8113 25.94C10.9722 26.1646 11.201 26.2996 11.4371 26.3329L11.3136 27.0822L11.1901 27.8316C10.5473 27.7409 9.97922 27.3831 9.60054 26.8545L10.2059 26.3972ZM10.6087 18.16L10.7907 18.8876C10.4042 18.9985 10.1527 19.0712 9.96324 19.1407C9.78096 19.2076 9.71071 19.2529 9.67359 19.2834L9.21686 18.7006L8.76012 18.1178C8.98671 17.9315 9.23634 17.8145 9.49605 17.7192C9.74852 17.6266 10.0611 17.5374 10.4267 17.4324L10.6087 18.16ZM8.83626 21.4484L8.11536 21.6553C8.01694 21.2619 7.9342 20.9326 7.88388 20.6578C7.83248 20.3771 7.80437 20.102 7.83962 19.8152L8.57735 19.887L9.31509 19.9588C9.30695 20.025 9.30753 20.1278 9.34605 20.3382C9.38565 20.5544 9.45404 20.8293 9.55715 21.2415L8.83626 21.4484ZM9.21686 18.7006L9.67359 19.2834C9.48468 19.4386 9.34959 19.6781 9.31509 19.9588L8.57735 19.887L7.83962 19.8152C7.92082 19.1546 8.2458 18.5405 8.76012 18.1178L9.21686 18.7006ZM10.6087 18.16L10.4267 17.4324C10.7923 17.3275 11.1047 17.2374 11.3666 17.1824C11.6359 17.1258 11.9068 17.0935 12.1899 17.1334L12.0664 17.8827L11.9429 18.632C11.8965 18.6255 11.8146 18.6239 11.6255 18.6636C11.4289 18.7049 11.1772 18.7767 10.7907 18.8876L10.6087 18.16ZM13.7869 20.4908L13.066 20.6977C12.9641 20.2904 12.8657 19.8977 12.7687 19.5721C12.7203 19.4098 12.6757 19.2757 12.6351 19.1721C12.5906 19.0587 12.566 19.0212 12.5687 19.025L13.1741 18.5677L13.7795 18.1104C13.9633 18.3671 14.0956 18.7675 14.1929 19.0941C14.3013 19.458 14.4081 19.8856 14.5077 20.2839L13.7869 20.4908ZM12.0664 17.8827L12.1899 17.1334C12.8327 17.224 13.4008 17.5818 13.7795 18.1104L13.1741 18.5677L12.5687 19.025C12.4078 18.8003 12.179 18.6653 11.9429 18.632L12.0664 17.8827ZM26.8517 19.984L26.1308 20.1909L25.2658 16.733L25.9867 16.5261L26.7076 16.3192L27.5726 19.7771L26.8517 19.984ZM25.0792 23.2724L24.8972 22.5448C25.2837 22.4339 25.5352 22.3613 25.7247 22.2917C25.907 22.2249 25.9772 22.1796 26.0143 22.1491L26.4711 22.7319L26.9278 23.3147C26.7012 23.5009 26.4516 23.618 26.1919 23.7132C25.9394 23.8058 25.6268 23.8951 25.2612 24L25.0792 23.2724ZM26.8517 19.984L27.5726 19.7771C27.671 20.1706 27.7537 20.4999 27.8041 20.7747C27.8555 21.0553 27.8836 21.3304 27.8483 21.6172L27.1106 21.5454L26.3728 21.4737C26.381 21.4074 26.3804 21.3046 26.3419 21.0943C26.3023 20.878 26.2339 20.6031 26.1308 20.1909L26.8517 19.984ZM26.4711 22.7319L26.0143 22.1491C26.2033 21.9938 26.3383 21.7544 26.3728 21.4737L27.1106 21.5454L27.8483 21.6172C27.7671 22.2778 27.4421 22.892 26.9278 23.3147L26.4711 22.7319ZM21.9011 20.9416L22.622 20.7347C22.7239 21.142 22.8223 21.5348 22.9193 21.8604C22.9676 22.0226 23.0123 22.1568 23.0529 22.2603C23.0973 22.3738 23.122 22.4113 23.1192 22.4075L22.5139 22.8647L21.9085 23.322C21.7246 23.0654 21.5924 22.665 21.495 22.3383C21.3866 21.9744 21.2798 21.5468 21.1802 21.1485L21.9011 20.9416ZM25.0792 23.2724L25.2612 24C24.8956 24.1049 24.5832 24.1951 24.3214 24.2501C24.052 24.3067 23.7812 24.339 23.498 24.2991L23.6215 23.5497L23.745 22.8004C23.7914 22.807 23.8734 22.8086 24.0624 22.7688C24.259 22.7275 24.5107 22.6558 24.8972 22.5448L25.0792 23.2724ZM22.5139 22.8647L23.1192 22.4075C23.2802 22.6321 23.5089 22.7671 23.745 22.8004L23.6215 23.5497L23.498 24.2991C22.8553 24.2084 22.2872 23.8506 21.9085 23.322L22.5139 22.8647ZM22.9167 14.6275L23.0987 15.3551C22.7122 15.466 22.4607 15.5387 22.2712 15.6082C22.0889 15.6751 22.0186 15.7204 21.9815 15.7509L21.5248 15.1681L21.0681 14.5853C21.2946 14.399 21.5443 14.282 21.804 14.1867C22.0565 14.0941 22.3691 14.0049 22.7346 13.9L22.9167 14.6275ZM21.2523 18.3482L20.5314 18.5551C20.4318 18.1568 20.3247 17.7293 20.2487 17.356C20.1805 17.021 20.1081 16.6035 20.1476 16.2827L20.8853 16.3545L21.623 16.4263C21.6236 16.4216 21.6198 16.4672 21.6342 16.5893C21.6474 16.7007 21.6713 16.8408 21.7052 17.0072C21.7732 17.3411 21.8713 17.7339 21.9732 18.1413L21.2523 18.3482ZM21.5248 15.1681L21.9815 15.7509C21.7926 15.9061 21.6575 16.1456 21.623 16.4263L20.8853 16.3545L20.1476 16.2827C20.2288 15.6221 20.5537 15.008 21.0681 14.5853L21.5248 15.1681ZM22.9167 14.6275L22.7346 13.9C23.1002 13.795 23.4126 13.7049 23.6745 13.6499C23.9439 13.5933 24.2147 13.561 24.4979 13.6009L24.3744 14.3502L24.2509 15.0995C24.2045 15.093 24.1225 15.0914 23.9334 15.1311C23.7369 15.1724 23.4852 15.2442 23.0987 15.3551L22.9167 14.6275ZM25.9867 16.5261L25.2658 16.733C25.1627 16.3208 25.0936 16.0461 25.0269 15.8376C24.9621 15.6348 24.9146 15.5455 24.8766 15.4925L25.482 15.0352L26.0874 14.5779C26.2518 14.8074 26.3559 15.0607 26.4424 15.3313C26.5271 15.5963 26.6091 15.9258 26.7076 16.3192L25.9867 16.5261ZM24.3744 14.3502L24.4979 13.6009C25.1406 13.6915 25.7087 14.0493 26.0874 14.5779L25.482 15.0352L24.8766 15.4925C24.7157 15.2678 24.487 15.1328 24.2509 15.0995L24.3744 14.3502ZM21.2523 18.3482L21.4343 19.0757L13.9689 21.2184L13.7869 20.4908L13.6048 19.7632L21.0703 17.6206L21.2523 18.3482ZM14.4356 23.0843L14.2536 22.3567L21.7191 20.214L21.9011 20.9416L22.0831 21.6692L14.6176 23.8119L14.4356 23.0843Z" fill="black"/>
</svg>
