<svg width="30" height="30" viewBox="0 0 30 30" fill="none" xmlns="http://www.w3.org/2000/svg">
<path d="M5.01509 19.7022L7.12696 13.3666C8.08447 10.4941 8.56323 9.05778 9.69605 8.79036C10.8289 8.52294 11.8994 9.59347 14.0405 11.7345L18.2642 15.9583C20.4053 18.0994 21.4758 19.1699 21.2084 20.3027C20.941 21.4355 19.5047 21.9143 16.6322 22.8718L10.2966 24.9837C6.83979 26.1359 5.1114 26.7121 4.19905 25.7997C3.2867 24.8874 3.86283 23.159 5.01509 19.7022Z" stroke="black" stroke-width="1.5" stroke-linecap="round"/>
<path d="M15.294 22.9328C15.294 22.9328 14.3463 20.0814 14.3463 18.1942C14.3463 16.3071 15.294 13.4556 15.294 13.4556M10.0816 24.3544C10.0816 24.3544 9.28118 20.9145 9.13387 18.6681C8.89049 14.9565 10.0816 9.19092 10.0816 9.19092" stroke="black" stroke-width="1.5" stroke-linecap="round"/>
<path d="M18.1367 12.5076L18.3167 11.6077C18.4984 10.6991 19.1531 9.95746 20.0322 9.66444C20.9112 9.37142 21.5659 8.62983 21.7476 7.72121L21.9276 6.82129" stroke="black" stroke-width="1.5" stroke-linecap="round"/>
<path d="M21.9617 16.5667L22.2277 16.7203C23.0491 17.1945 24.0818 17.0899 24.7915 16.4606C25.4341 15.8908 26.3493 15.7463 27.1362 16.0904L27.5006 16.2497" stroke="black" stroke-width="1.5" stroke-linecap="round"/>
<path d="M12.244 3.47391C11.8221 4.16398 11.9278 5.05321 12.4998 5.62512L12.6221 5.74747C13.1136 6.23892 13.2948 6.96089 13.0937 7.62618" stroke="black" stroke-width="1.5" stroke-linecap="round"/>
<path d="M8.65951 4.92587C8.92135 4.66403 9.34587 4.66403 9.6077 4.92587C9.86954 5.18771 9.86954 5.61223 9.6077 5.87406C9.34587 6.1359 8.92135 6.1359 8.65951 5.87406C8.39768 5.61223 8.39768 5.18771 8.65951 4.92587Z" fill="black"/>
<path d="M15.1964 8.94638C15.4582 8.68454 15.8827 8.68454 16.1446 8.94638C16.4064 9.20821 16.4064 9.63273 16.1446 9.89457C15.8827 10.1564 15.4582 10.1564 15.1964 9.89457C14.9345 9.63273 14.9345 9.20821 15.1964 8.94638Z" fill="black"/>
<path d="M21.4464 12.6964C21.7082 12.4345 22.1327 12.4345 22.3946 12.6964C22.6564 12.9582 22.6564 13.3827 22.3946 13.6446C22.1327 13.9064 21.7082 13.9064 21.4464 13.6446C21.1845 13.3827 21.1845 12.9582 21.4464 12.6964Z" fill="black"/>
<path d="M23.8228 19.1417C24.0847 18.8799 24.5092 18.8799 24.771 19.1417C25.0329 19.4035 25.0329 19.828 24.771 20.0899C24.5092 20.3517 24.0847 20.3517 23.8228 20.0899C23.561 19.828 23.561 19.4035 23.8228 19.1417Z" fill="black"/>
<path d="M24.2021 9.64283C23.3642 10.4807 23.9655 12.9099 23.9655 12.9099C23.9655 12.9099 26.3947 13.5111 27.2325 12.6733C28.1199 11.7859 27.6178 10.6212 26.2505 10.6249C26.2541 9.25757 25.0894 8.75546 24.2021 9.64283Z" stroke="black" stroke-linejoin="round"/>
<path d="M18.9853 4.27186L18.9508 4.39324C18.9129 4.52657 18.8939 4.59324 18.9029 4.65869C18.9119 4.72413 18.9477 4.78095 19.0194 4.89459L19.0847 4.99805C19.337 5.39794 19.4632 5.59789 19.3772 5.76143C19.2913 5.92498 19.0501 5.9438 18.5678 5.98146L18.4431 5.9912C18.306 6.0019 18.2375 6.00725 18.1776 6.03874C18.1177 6.07022 18.0731 6.12428 17.9841 6.2324L17.9031 6.33083C17.5898 6.71131 17.4332 6.90155 17.2546 6.87708C17.0759 6.85262 16.9935 6.62966 16.8288 6.18373L16.7861 6.06837C16.7393 5.94165 16.7159 5.87829 16.6699 5.8323C16.6239 5.78632 16.5606 5.76291 16.4339 5.71609L16.3185 5.67347C15.8726 5.50872 15.6496 5.42634 15.6252 5.24768C15.6007 5.06902 15.7909 4.9124 16.1714 4.59915L16.2698 4.51811C16.378 4.42909 16.432 4.38458 16.4635 4.32467C16.495 4.26476 16.5003 4.19624 16.511 4.05918L16.5208 3.93441C16.5584 3.45211 16.5773 3.21096 16.7408 3.12501C16.9043 3.03905 17.1043 3.16522 17.5042 3.41754L17.6076 3.48282C17.7213 3.55452 17.7781 3.59038 17.8436 3.59934C17.909 3.6083 17.9757 3.58935 18.109 3.55147L18.2304 3.51697C18.6996 3.38365 18.9342 3.31699 19.0597 3.44252C19.1852 3.56806 19.1186 3.80266 18.9853 4.27186Z" stroke="black"/>
</svg>
