<svg width="30" height="30" viewBox="0 0 30 30" fill="none" xmlns="http://www.w3.org/2000/svg">
<path d="M25 18.75C25 24.0681 21.7274 26.4018 19.1985 27.1888C18.6592 27.3566 18.3048 26.7279 18.6274 26.2643C19.7279 24.6828 21 22.2698 21 20C21 17.5618 18.9449 14.6831 17.3401 12.9076C16.9733 12.5017 16.3333 12.7703 16.3133 13.3171C16.247 15.1286 15.9612 17.5522 14.7285 19.4517C14.5301 19.7574 14.1089 19.7828 13.8829 19.4969C13.4977 19.0098 13.1126 18.4081 12.7275 17.9328C12.52 17.6767 12.1451 17.6732 11.9058 17.8998C10.9728 18.7832 9.66667 20.1607 9.66667 21.875C9.66667 23.1116 10.256 24.6507 10.8635 25.8426C11.1393 26.3838 10.6275 27.0188 10.1018 26.7144C7.80698 25.386 5 22.6336 5 18.75C5 14.8169 10.3879 9.36854 12.4451 4.22115C12.7697 3.40892 13.7701 3.02725 14.4659 3.55729C18.6799 6.76737 25 12.9727 25 18.75Z" stroke="black" stroke-width="1.5"/>
</svg>
