<svg width="30" height="30" viewBox="0 0 30 30" fill="none" xmlns="http://www.w3.org/2000/svg">
<path d="M12.7062 5.97403L13.3336 6.41803C13.8209 6.76287 14.4031 6.94805 15 6.94805C15.597 6.94805 16.1792 6.76286 16.6665 6.41801L17.2938 5.97403C18.1892 5.34032 19.2592 5 20.3562 5H21.1218C21.627 5 22.1374 5.03186 22.6136 5.20074C25.5919 6.25707 27.6406 10.1188 27.4925 18.8783C27.4626 20.6432 27.0496 22.5938 25.4572 23.3553C24.961 23.5926 24.3792 23.75 23.7166 23.75C22.9216 23.75 22.2902 23.5234 21.803 23.204C20.6606 22.4553 19.8235 21.2049 18.6109 20.5761C17.881 20.1976 17.0708 20 16.2486 20H13.7514C12.9292 20 12.119 20.1976 11.3891 20.5761C10.1765 21.2049 9.33941 22.4553 8.19704 23.204C7.70975 23.5234 7.07841 23.75 6.28339 23.75C5.62084 23.75 5.03901 23.5926 4.54279 23.3553C2.95037 22.5938 2.5374 20.6432 2.50755 18.8783C2.35936 10.1188 4.40806 6.25708 7.38643 5.20074C7.86261 5.03186 8.37298 5 8.87821 5H9.6438C10.7408 5 11.8108 5.34032 12.7062 5.97403Z" stroke="black" stroke-width="1.5" stroke-linecap="round"/>
<path d="M9.375 11.25V15M7.5 13.125L11.25 13.125" stroke="black" stroke-width="1.5" stroke-linecap="round"/>
<path d="M23.75 12.8125C23.75 13.3303 23.3303 13.75 22.8125 13.75C22.2947 13.75 21.875 13.3303 21.875 12.8125C21.875 12.2947 22.2947 11.875 22.8125 11.875C23.3303 11.875 23.75 12.2947 23.75 12.8125Z" fill="black"/>
<path d="M20 12.8125C20 13.3303 19.5803 13.75 19.0625 13.75C18.5447 13.75 18.125 13.3303 18.125 12.8125C18.125 12.2947 18.5447 11.875 19.0625 11.875C19.5803 11.875 20 12.2947 20 12.8125Z" fill="black"/>
<path d="M20.9375 10C21.4553 10 21.875 10.4197 21.875 10.9375C21.875 11.4553 21.4553 11.875 20.9375 11.875C20.4197 11.875 20 11.4553 20 10.9375C20 10.4197 20.4197 10 20.9375 10Z" fill="black"/>
<path d="M20.9375 13.75C21.4553 13.75 21.875 14.1697 21.875 14.6875C21.875 15.2053 21.4553 15.625 20.9375 15.625C20.4197 15.625 20 15.2053 20 14.6875C20 14.1697 20.4197 13.75 20.9375 13.75Z" fill="black"/>
</svg>
