<svg width="30" height="30" viewBox="0 0 30 30" fill="none" xmlns="http://www.w3.org/2000/svg">
<path d="M12.6872 11.0027L12.2454 11.6088V11.6088L12.6872 11.0027ZM15 3.88269L14.4925 4.43487C14.7794 4.69864 15.2206 4.69864 15.5075 4.43487L15 3.88269ZM17.3128 11.0027L17.7546 11.6088H17.7546L17.3128 11.0027ZM15 12.095L15 12.845H15L15 12.095ZM12.6872 11.0027L13.129 10.3967C12.2608 9.76379 11.3277 8.98928 10.6191 8.16782C9.89239 7.32545 9.5 6.54666 9.5 5.89346H8.75H8C8 7.09662 8.68632 8.22378 9.48329 9.14762C10.2983 10.0924 11.3338 10.9443 12.2454 11.6088L12.6872 11.0027ZM8.75 5.89346H9.5C9.5 4.50017 10.1919 3.66656 11.0596 3.37456C11.9538 3.07363 13.2386 3.28237 14.4925 4.43487L15 3.88269L15.5075 3.33052C13.949 1.89791 12.1088 1.4388 10.5811 1.95291C9.0269 2.47595 8 3.94028 8 5.89346H8.75ZM17.3128 11.0027L17.7546 11.6088C18.6662 10.9443 19.7017 10.0924 20.5167 9.14763C21.3137 8.22378 22 7.09662 22 5.89344H21.25H20.5C20.5 6.54667 20.1076 7.32547 19.3809 8.16783C18.6723 8.9893 17.7392 9.76381 16.871 10.3967L17.3128 11.0027ZM21.25 5.89344H22C22 3.94027 20.9731 2.47595 19.4189 1.9529C17.8912 1.4388 16.051 1.8979 14.4925 3.33052L15 3.88269L15.5075 4.43487C16.7614 3.28237 18.0462 3.07362 18.9404 3.37456C19.8081 3.66656 20.5 4.50016 20.5 5.89344H21.25ZM12.6872 11.0027L12.2454 11.6088C13.2003 12.3049 13.8989 12.845 15 12.845L15 12.095L15 11.345C14.4721 11.345 14.1719 11.1569 13.129 10.3967L12.6872 11.0027ZM17.3128 11.0027L16.871 10.3967C15.8281 11.1569 15.5279 11.345 15 11.345L15 12.095L15 12.845C16.1011 12.845 16.7998 12.3049 17.7546 11.6088L17.3128 11.0027Z" fill="black"/>
<path d="M6.25 25.4855H9.07492C10.3385 25.4855 11.6157 25.6171 12.8454 25.8705C15.0207 26.3186 17.3111 26.3729 19.5087 26.0172C20.5922 25.8418 21.6576 25.5736 22.6218 25.1082C23.4924 24.688 24.5587 24.0958 25.2749 23.4324C25.9901 22.77 26.735 21.6858 27.2637 20.8384C27.717 20.1118 27.4977 19.2202 26.7807 18.6788C25.9841 18.0774 24.8021 18.0775 24.0058 18.6791L21.7468 20.3855C20.8713 21.0469 19.915 21.6557 18.7757 21.8374C18.6388 21.8592 18.4952 21.8791 18.3454 21.8965M18.3454 21.8965C18.3004 21.9017 18.2547 21.9067 18.2085 21.9115M18.3454 21.8965C18.5277 21.8574 18.7087 21.7451 18.8784 21.5969C19.6824 20.8951 19.7333 19.7125 19.0357 18.9289C18.8738 18.7471 18.6844 18.5955 18.4738 18.4699C14.9772 16.3843 9.53677 17.9728 6.25 20.3036M18.3454 21.8965C18.2998 21.9063 18.2541 21.9115 18.2085 21.9115M18.2085 21.9115C17.5543 21.9786 16.789 21.996 15.9397 21.9158" stroke="black" stroke-width="1.5" stroke-linecap="round"/>
<rect x="2.5" y="17.5" width="3.75" height="10" rx="1.5" stroke="black" stroke-width="1.5"/>
</svg>
