<svg width="30" height="30" viewBox="0 0 30 30" fill="none" xmlns="http://www.w3.org/2000/svg">
<path d="M11.9199 8.63636C11.9199 7.31841 13.1085 6.25 14.5749 6.25C16.0412 6.25 17.2299 7.31841 17.2299 8.63636C17.2299 9.25665 17.0058 9.82166 16.6157 10.246C15.8685 11.0588 14.7519 11.8775 14.7519 12.9318V13.2874M14.7519 13.2874C15.6663 13.2767 16.5843 13.5307 17.3556 14.0507L26.6463 20.3136C28.2792 21.4144 27.4131 23.75 25.3719 23.75H4.62818C2.60901 23.75 1.72903 21.456 3.31914 20.3375L12.1888 14.0984C12.9418 13.5687 13.845 13.2979 14.7519 13.2874Z" stroke="black" stroke-width="1.5" stroke-linecap="round"/>
</svg>
