<svg width="30" height="30" viewBox="0 0 30 30" fill="none" xmlns="http://www.w3.org/2000/svg">
<path d="M11.2022 24.2233L10.7296 24.8057L11.2022 24.2233ZM15 6.96765L14.4522 7.47988C14.594 7.63156 14.7923 7.71765 15 7.71765C15.2077 7.71765 15.406 7.63156 15.5478 7.47988L15 6.96765ZM18.7979 24.2233L19.2704 24.8057L19.2704 24.8057L18.7979 24.2233ZM15 26.25L15 25.5L15 26.25ZM11.2022 24.2233L11.6748 23.6409C9.85709 22.1659 7.72919 20.2274 6.06209 18.1012C4.38052 15.9565 3.25 13.7244 3.25 11.6469H2.5H1.75C1.75 14.2309 3.13162 16.7947 4.88167 19.0267C6.64617 21.2772 8.86936 23.2961 10.7296 24.8057L11.2022 24.2233ZM2.5 11.6469H3.25C3.25 7.96351 4.86142 5.63318 6.91416 4.82939C8.96344 4.02696 11.7779 4.61973 14.4522 7.47988L15 6.96765L15.5478 6.45542C12.5973 3.29979 9.16176 2.33841 6.36724 3.43266C3.57618 4.52555 1.75 7.54272 1.75 11.6469H2.5ZM18.7979 24.2233L19.2704 24.8057C21.1307 23.2962 23.3538 21.2772 25.1183 19.0268C26.8684 16.7948 28.25 14.2309 28.25 11.6468H27.5H26.75C26.75 13.7244 25.6195 15.9566 23.9379 18.1012C22.2708 20.2275 20.1429 22.1659 18.3253 23.6409L18.7979 24.2233ZM27.5 11.6468H28.25C28.25 7.54269 26.4238 4.52553 23.6328 3.43265C20.8382 2.33841 17.4027 3.29979 14.4522 6.45542L15 6.96765L15.5478 7.47988C18.2221 4.61973 21.0366 4.02696 23.0858 4.82939C25.1386 5.63317 26.75 7.96349 26.75 11.6468H27.5ZM11.2022 24.2233L10.7296 24.8057C12.334 26.1077 13.3822 27 15 27L15 26.25L15 25.5C14.0171 25.5 13.4003 25.0412 11.6748 23.6409L11.2022 24.2233ZM18.7979 24.2233L18.3253 23.6409C16.5997 25.0412 15.983 25.5 15 25.5L15 26.25L15 27C16.6178 27 17.666 26.1077 19.2704 24.8057L18.7979 24.2233Z" fill="black"/>
<path d="M23.125 11.25H20.625M20.625 11.25L18.125 11.25M20.625 11.25L20.625 8.75M20.625 11.25L20.625 13.75" stroke="black" stroke-width="1.5" stroke-linecap="round"/>
</svg>
