<svg width="30" height="30" viewBox="0 0 30 30" fill="none" xmlns="http://www.w3.org/2000/svg">
<path d="M16.2945 4.5645C19.0633 2.92479 20.4477 2.10493 21.4644 2.68664C22.4812 3.26835 22.4569 4.86637 22.4083 8.06242L22.3957 8.88927C22.3819 9.79749 22.375 10.2516 22.5443 10.6507C22.7135 11.0497 23.0398 11.3486 23.6923 11.9463L24.2863 12.4904C26.5825 14.5937 27.7306 15.6454 27.4614 16.8263C27.1923 18.0073 25.6842 18.5355 22.668 19.5918L21.8876 19.8651C21.0305 20.1653 20.602 20.3154 20.2732 20.6163C19.9444 20.9172 19.7526 21.3349 19.3691 22.1703L19.0199 22.9308C17.6702 25.8704 16.9954 27.3402 15.8123 27.4884C14.6292 27.6366 13.7215 26.365 11.9059 23.8218L11.4362 23.1638C10.9203 22.4411 10.6623 22.0798 10.2899 21.8667C9.91743 21.6536 9.47266 21.6129 8.58312 21.5315L7.77327 21.4573C4.64295 21.1708 3.07779 21.0276 2.61575 19.9382C2.15371 18.8488 3.10078 17.5347 4.99493 14.9066L5.48497 14.2267C6.02322 13.4798 6.29235 13.1064 6.39094 12.6738C6.48953 12.2412 6.40642 11.7984 6.24019 10.9127L6.08886 10.1064C5.50392 6.98966 5.21144 5.43131 6.10895 4.60985C7.00646 3.7884 8.49956 4.24786 11.4858 5.16677L12.2583 5.40451C13.1069 5.66563 13.5312 5.7962 13.9646 5.74192C14.398 5.68764 14.7914 5.45466 15.5782 4.98871L16.2945 4.5645Z" stroke="black" stroke-width="1.5"/>
<path d="M21.7803 20.7197C21.4874 20.4268 21.0126 20.4268 20.7197 20.7197C20.4268 21.0126 20.4268 21.4874 20.7197 21.7803L21.25 21.25L21.7803 20.7197ZM25.7197 26.7803C26.0126 27.0732 26.4874 27.0732 26.7803 26.7803C27.0732 26.4874 27.0732 26.0126 26.7803 25.7197L26.25 26.25L25.7197 26.7803ZM21.25 21.25L20.7197 21.7803L25.7197 26.7803L26.25 26.25L26.7803 25.7197L21.7803 20.7197L21.25 21.25Z" fill="black"/>
</svg>
