<svg width="30" height="30" viewBox="0 0 30 30" fill="none" xmlns="http://www.w3.org/2000/svg">
<path d="M2.5 15.0326C2.5 21.4654 7.33391 26.7662 13.5585 27.4828C14.477 27.5886 15.3673 27.197 16.021 26.5416C16.8378 25.7226 16.8378 24.3949 16.021 23.5759C15.3673 22.9205 14.8343 21.9427 15.3273 21.1585C17.2982 18.024 27.5 25.2225 27.5 15.0326C27.5 8.11105 21.9036 2.5 15 2.5C8.09644 2.5 2.5 8.11105 2.5 15.0326Z" stroke="black" stroke-width="1.5"/>
<circle cx="21.875" cy="14.375" r="1.125" stroke="black" stroke-width="1.5"/>
<circle cx="8.125" cy="14.375" r="1.125" stroke="black" stroke-width="1.5"/>
<path d="M11.9812 7.62476C12.6025 7.62476 13.1062 8.12844 13.1062 8.74976C13.1062 9.37108 12.6025 9.87476 11.9812 9.87476C11.3599 9.87476 10.8562 9.37108 10.8562 8.74976C10.8562 8.12844 11.3599 7.62476 11.9812 7.62476Z" stroke="black" stroke-width="1.5"/>
<path d="M18.125 7.625C18.7463 7.625 19.25 8.12868 19.25 8.75C19.25 9.37132 18.7463 9.875 18.125 9.875C17.5037 9.875 17 9.37132 17 8.75C17 8.12868 17.5037 7.625 18.125 7.625Z" stroke="black" stroke-width="1.5"/>
</svg>
