<svg width="30" height="30" viewBox="0 0 30 30" fill="none" xmlns="http://www.w3.org/2000/svg">
<path d="M17.9501 5.09832L19.1087 3.93972C21.0283 2.02009 24.1406 2.02009 26.0603 3.93972C27.9799 5.85935 27.9799 8.97169 26.0603 10.8913L24.9017 12.0499M17.9501 5.09832C17.9501 5.09832 18.0949 7.56035 20.2673 9.73272C22.4397 11.9051 24.9017 12.0499 24.9017 12.0499M17.9501 5.09832L7.29853 15.7499C6.57708 16.4713 6.21635 16.8321 5.90612 17.2298C5.54017 17.699 5.22642 18.2066 4.97043 18.7438C4.75342 19.1991 4.59209 19.6831 4.26945 20.651L2.90226 24.7526M24.9017 12.0499L14.2501 22.7015C13.5287 23.4229 13.1679 23.7836 12.7702 24.0939C12.301 24.4598 11.7934 24.7736 11.2562 25.0296C10.8009 25.2466 10.3169 25.4079 9.34897 25.7305L5.2474 27.0977M5.2474 27.0977L4.2448 27.4319C3.76847 27.5907 3.24332 27.4667 2.88829 27.1117C2.53326 26.7567 2.40928 26.2315 2.56806 25.7552L2.90226 24.7526M5.2474 27.0977L2.90226 24.7526" stroke="black" stroke-width="1.5"/>
</svg>
