<svg width="30" height="30" viewBox="0 0 30 30" fill="none" xmlns="http://www.w3.org/2000/svg">
<path d="M8.75 6.7771V6.25C8.75 4.48223 8.75 3.59835 9.29917 3.04917C9.84835 2.5 10.7322 2.5 12.5 2.5C14.2678 2.5 15.1517 2.5 15.7008 3.04917C16.25 3.59835 16.25 4.48223 16.25 6.25V6.7771V8.75H8.75V6.875" stroke="black" stroke-width="1.5" stroke-linecap="round" stroke-linejoin="round"/>
<path d="M16.25 8.75H8.75" stroke="black" stroke-width="1.5" stroke-linecap="round" stroke-linejoin="round"/>
<path d="M8.75 6.25026C9.44036 6.25026 10 6.31536 10 5.625C10 4.93464 9.44036 5.00044 8.75 5.00044" stroke="black" stroke-width="1.5"/>
<path d="M12.5 8.75C6.97715 8.75 2.5 12.9445 2.5 18.1188C2.5 20.5123 3.45803 22.6961 5.03443 24.3522C5.59706 24.9432 5.87837 25.2387 7.0578 25.7444C8.23724 26.25 9.05049 26.25 10.677 26.25H14.323C15.9495 26.25 16.7628 26.25 17.9422 25.7444C19.1216 25.2387 19.4029 24.9432 19.9656 24.3522C21.542 22.6961 22.5 20.5123 22.5 18.1188C22.5 12.9445 18.0228 8.75 12.5 8.75Z" stroke="black" stroke-width="1.5"/>
<path d="M3.125 16.25C4.91876 16.9756 7.05366 18.4135 9.82587 18.7256C13.57 19.1472 15.5305 16.0296 19.2474 16.647C20.5575 16.8646 21.779 17.2401 22.5 17.64" stroke="black" stroke-width="1.5" stroke-linecap="round"/>
<path d="M16.875 6.25H17.8996C18.8699 6.25 19.8268 6.47591 20.6947 6.90983L21.875 7.5" stroke="black" stroke-width="1.5"/>
<path d="M25.6253 6.56221C27.1199 7.42515 27.772 9.09404 27.0816 10.2898C26.3912 11.4855 24.6199 11.7553 23.1253 10.8923C21.6306 10.0294 20.9786 8.3605 21.6689 7.16477C22.3593 5.96904 24.1306 5.69926 25.6253 6.56221Z" stroke="black" stroke-width="1.5"/>
</svg>
