<svg width="30" height="30" viewBox="0 0 30 30" fill="none" xmlns="http://www.w3.org/2000/svg">
<path d="M23.8742 13.3253C25.2641 14.9679 24.9751 16.9769 24.9751 18.75C24.9751 23.6328 18.3915 25 15 25C11.6085 25 5.02492 23.6328 5.02492 18.75C5.02494 16.9769 4.73594 14.9679 6.12583 13.3253M23.8742 13.3253C23.631 13.0379 23.3365 12.7617 22.98 12.5M23.8742 13.3253C24.7491 13.8293 24.9727 11.9434 24.9751 11.3281V8.98452C24.9751 6.95327 23.5786 6.25014 22.3816 6.25014C21.1846 6.25014 18.7905 8.20312 17.9925 8.20312C17.0349 8.20312 16.8505 8.00796 15 8.00796C13.1496 8.00796 12.9651 8.20312 12.0075 8.20312C11.2095 8.20312 8.81545 6.25 7.61845 6.25C6.42144 6.25 5.02494 6.95312 5.02494 8.98438V11.3281C5.02735 11.9434 5.2509 13.8293 6.12583 13.3253M6.12583 13.3253C6.36898 13.0379 6.66352 12.7617 7.01999 12.5" stroke="black" stroke-width="1.5" stroke-linecap="round"/>
<path d="M16.0325 19.9998C16.0325 20.2155 15.5812 20.3904 15.0244 20.3904C14.4677 20.3904 14.0164 20.2155 14.0164 19.9998C14.0164 19.784 14.4677 19.6091 15.0244 19.6091C15.5812 19.6091 16.0325 19.784 16.0325 19.9998Z" stroke="black" stroke-width="1.5"/>
<path d="M19.375 16.9922C19.375 17.5315 19.1042 17.9688 18.7702 17.9688C18.4361 17.9688 18.1653 17.5315 18.1653 16.9922C18.1653 16.4528 18.4361 16.0156 18.7702 16.0156C19.1042 16.0156 19.375 16.4528 19.375 16.9922Z" stroke="black" stroke-width="1.5"/>
<path d="M11.8752 16.9922C11.8752 17.5315 11.6044 17.9688 11.2704 17.9688C10.9364 17.9688 10.6656 17.5315 10.6656 16.9922C10.6656 16.4528 10.9364 16.0156 11.2704 16.0156C11.6044 16.0156 11.8752 16.4528 11.8752 16.9922Z" stroke="black" stroke-width="1.5"/>
<path d="M27.5005 19.3359C26.8956 18.9453 24.2747 17.9688 23.2666 17.9688" stroke="black" stroke-width="1.5" stroke-linecap="round"/>
<path d="M25.4839 22.4609C24.8791 22.0703 23.4678 21.0938 22.4597 21.0938" stroke="black" stroke-width="1.5" stroke-linecap="round"/>
<path d="M2.5 19.3359C3.10484 18.9453 5.72581 17.9688 6.73388 17.9688" stroke="black" stroke-width="1.5" stroke-linecap="round"/>
<path d="M4.51611 22.4609C5.12095 22.0703 6.53225 21.0938 7.54031 21.0938" stroke="black" stroke-width="1.5" stroke-linecap="round"/>
</svg>
