<svg width="30" height="30" viewBox="0 0 30 30" fill="none" xmlns="http://www.w3.org/2000/svg">
<path d="M4.0165 11.3388C1.9945 9.31683 1.9945 6.03851 4.0165 4.0165C6.03851 1.9945 9.31683 1.9945 11.3388 4.0165L25.9835 18.6612C28.0055 20.6832 28.0055 23.9615 25.9835 25.9835C23.9615 28.0055 20.6832 28.0055 18.6612 25.9835L4.0165 11.3388Z" stroke="black" stroke-width="1.5"/>
<path d="M15 22.3223L11.3388 25.9835C9.31683 28.0055 6.03851 28.0055 4.0165 25.9835C1.9945 23.9615 1.9945 20.6832 4.0165 18.6612L7.67767 15L15 22.3223Z" stroke="black" stroke-width="1.5"/>
<path d="M15 7.67767L18.6612 4.0165C20.6832 1.9945 23.9615 1.9945 25.9835 4.0165C28.0055 6.03851 28.0055 9.31683 25.9835 11.3388L22.3223 15L15 7.67767Z" stroke="black" stroke-width="1.5"/>
<path d="M19.8017 16.0893C20.1862 16.4737 20.1862 17.097 19.8017 17.4814C19.4173 17.8659 18.794 17.8659 18.4096 17.4814C18.0251 17.097 18.0251 16.4737 18.4096 16.0893C18.794 15.7048 19.4173 15.7048 19.8017 16.0893Z" fill="black"/>
<path d="M15.1612 11.4487C14.7767 11.0643 14.1534 11.0643 13.769 11.4487C13.3845 11.8331 13.3845 12.4564 13.769 12.8409C14.1534 13.2253 14.7767 13.2253 15.1612 12.8409C15.5456 12.4564 15.5456 11.8331 15.1612 11.4487Z" fill="black"/>
<path d="M20.9619 19.5697C21.3463 19.9542 21.3463 20.5774 20.9619 20.9619C20.5774 21.3463 19.9542 21.3463 19.5697 20.9619C19.1853 20.5774 19.1853 19.9542 19.5697 19.5697C19.9542 19.1853 20.5774 19.1853 20.9619 19.5697Z" fill="black"/>
<path d="M11.6807 10.2885C11.2963 9.90411 10.673 9.90411 10.2885 10.2885C9.90411 10.673 9.90411 11.2963 10.2885 11.6807C10.673 12.0652 11.2963 12.0652 11.6807 11.6807C12.0652 11.2963 12.0652 10.673 11.6807 10.2885Z" fill="black"/>
<path d="M16.3213 14.9291C16.7057 15.3136 16.7057 15.9369 16.3213 16.3213C15.9369 16.7057 15.3136 16.7057 14.9291 16.3213C14.5447 15.9369 14.5447 15.3136 14.9291 14.9291C15.3136 14.5447 15.9369 14.5447 16.3213 14.9291Z" fill="black"/>
<path d="M17.4815 18.4096C17.8659 18.794 17.8659 19.4173 17.4815 19.8017C17.097 20.1862 16.4737 20.1862 16.0893 19.8017C15.7048 19.4173 15.7048 18.794 16.0893 18.4096C16.4737 18.0251 17.097 18.0251 17.4815 18.4096Z" fill="black"/>
<path d="M12.8409 13.769C12.4564 13.3845 11.8331 13.3845 11.4487 13.769C11.0643 14.1534 11.0643 14.7767 11.4487 15.1612C11.8331 15.5456 12.4564 15.5456 12.8409 15.1612C13.2253 14.7767 13.2253 14.1534 12.8409 13.769Z" fill="black"/>
</svg>
