<svg width="30" height="30" viewBox="0 0 30 30" fill="none" xmlns="http://www.w3.org/2000/svg">
<path d="M12.2284 4.37456C14.0047 3.54181 15.9952 3.54181 17.7715 4.37456L26.1355 8.2958C27.9548 9.14874 27.9548 12.1013 26.1355 12.9543L17.7716 16.8754C15.9953 17.7082 14.0048 17.7082 12.2285 16.8754L3.8645 12.9542C2.04516 12.1013 2.04517 9.14869 3.8645 8.29574L12.2284 4.37456Z" stroke="black" stroke-width="1.5"/>
<path d="M2.5 10.625V17.5" stroke="black" stroke-width="1.5" stroke-linecap="round"/>
<path d="M23.75 14.375V20.7818C23.75 22.0418 23.1206 23.2215 22.0183 23.832C20.1829 24.8484 17.245 26.25 15 26.25C12.755 26.25 9.81713 24.8484 7.98167 23.832C6.87938 23.2215 6.25 22.0418 6.25 20.7818V14.375" stroke="black" stroke-width="1.5" stroke-linecap="round"/>
</svg>
