<svg width="30" height="30" viewBox="0 0 30 30" fill="none" xmlns="http://www.w3.org/2000/svg">
<path d="M10.0417 4.5723C10.4742 3.4759 12.0258 3.4759 12.4583 4.57231L13.7983 7.96998C13.9303 8.30472 14.1953 8.56969 14.53 8.70171L17.9277 10.0417C19.0241 10.4742 19.0241 12.0258 17.9277 12.4583L14.53 13.7983C14.1953 13.9303 13.9303 14.1953 13.7983 14.53L12.4583 17.9277C12.0258 19.0241 10.4742 19.0241 10.0417 17.9277L8.70171 14.53C8.56969 14.1953 8.30472 13.9303 7.96998 13.7983L4.5723 12.4583C3.4759 12.0258 3.4759 10.4742 4.57231 10.0417L7.96998 8.70171C8.30472 8.56969 8.56969 8.30472 8.70171 7.96998L10.0417 4.5723Z" stroke="black" stroke-width="1.5"/>
<path d="M20.6106 16.6852C20.8394 16.1049 21.6606 16.1049 21.8894 16.6852L22.8902 19.2226C22.96 19.3997 23.1002 19.54 23.2774 19.6098L25.8148 20.6106C26.3951 20.8394 26.3951 21.6606 25.8148 21.8894L23.2774 22.8902C23.1002 22.96 22.96 23.1002 22.8902 23.2774L21.8894 25.8148C21.6606 26.3951 20.8394 26.3951 20.6106 25.8148L19.6098 23.2774C19.54 23.1002 19.3997 22.96 19.2226 22.8902L16.6852 21.8894C16.1049 21.6606 16.1049 20.8394 16.6852 20.6106L19.2226 19.6098C19.3997 19.54 19.54 19.3997 19.6098 19.2226L20.6106 16.6852Z" stroke="black" stroke-width="1.5"/>
</svg>
