<svg width="30" height="30" viewBox="0 0 30 30" fill="none" xmlns="http://www.w3.org/2000/svg">
<path d="M2.89424 15.8722C2.83183 15.3382 2.80062 15.0712 2.81375 14.8511C2.88261 13.6972 3.73358 12.741 4.87169 12.5386C5.0888 12.5 5.35762 12.5 5.89528 12.5H19.1049C19.6426 12.5 19.9114 12.5 20.1285 12.5386C21.2666 12.741 22.1176 13.6972 22.1864 14.8511C22.1996 15.0712 22.1683 15.3382 22.1059 15.8722L21.6051 20.1573C21.379 22.0912 20.3457 23.8393 18.7603 24.9696C17.5922 25.8024 16.1933 26.25 14.7588 26.25H10.2414C8.80683 26.25 7.408 25.8024 6.2399 24.9696C4.65452 23.8393 3.62113 22.0912 3.3951 20.1573L2.89424 15.8722Z" stroke="black" stroke-width="1.5"/>
<path d="M21.25 21.25H23.75C25.8211 21.25 27.5 19.5711 27.5 17.5C27.5 15.4289 25.8211 13.75 23.75 13.75H21.875" stroke="black" stroke-width="1.5"/>
<path d="M12.5002 2.5C11.8098 3.19036 11.8098 4.30964 12.5002 5C13.1905 5.69036 13.1905 6.80964 12.5002 7.5" stroke="black" stroke-width="1.5" stroke-linecap="round" stroke-linejoin="round"/>
<path d="M6.24998 9.375L6.39513 9.22985C7.02909 8.59589 7.10042 7.59224 6.56248 6.875C6.02455 6.15776 6.09588 5.15411 6.72984 4.52015L6.87498 4.375" stroke="black" stroke-width="1.5" stroke-linecap="round" stroke-linejoin="round"/>
<path d="M18.125 9.375L18.2701 9.22985C18.9041 8.59589 18.9754 7.59224 18.4375 6.875C17.8995 6.15776 17.9709 5.15411 18.6048 4.52015L18.75 4.375" stroke="black" stroke-width="1.5" stroke-linecap="round" stroke-linejoin="round"/>
</svg>
