<svg width="30" height="30" viewBox="0 0 30 30" fill="none" xmlns="http://www.w3.org/2000/svg">
<path d="M2.5 15C2.5 10.286 2.5 7.92893 3.96447 6.46447C5.42893 5 7.78595 5 12.5 5H17.5C22.214 5 24.5711 5 26.0355 6.46447C27.5 7.92893 27.5 10.286 27.5 15V17.5C27.5 22.214 27.5 24.5711 26.0355 26.0355C24.5711 27.5 22.214 27.5 17.5 27.5H12.5C7.78595 27.5 5.42893 27.5 3.96447 26.0355C2.5 24.5711 2.5 22.214 2.5 17.5V15Z" stroke="black" stroke-width="1.5"/>
<path d="M8.75 5V3.125" stroke="black" stroke-width="1.5" stroke-linecap="round"/>
<path d="M21.25 5V3.125" stroke="black" stroke-width="1.5" stroke-linecap="round"/>
<path d="M3.125 11.25H26.875" stroke="black" stroke-width="1.5" stroke-linecap="round"/>
<path d="M22.5 21.25C22.5 21.9404 21.9404 22.5 21.25 22.5C20.5596 22.5 20 21.9404 20 21.25C20 20.5596 20.5596 20 21.25 20C21.9404 20 22.5 20.5596 22.5 21.25Z" fill="black"/>
<path d="M22.5 16.25C22.5 16.9404 21.9404 17.5 21.25 17.5C20.5596 17.5 20 16.9404 20 16.25C20 15.5596 20.5596 15 21.25 15C21.9404 15 22.5 15.5596 22.5 16.25Z" fill="black"/>
<path d="M16.25 21.25C16.25 21.9404 15.6904 22.5 15 22.5C14.3096 22.5 13.75 21.9404 13.75 21.25C13.75 20.5596 14.3096 20 15 20C15.6904 20 16.25 20.5596 16.25 21.25Z" fill="black"/>
<path d="M16.25 16.25C16.25 16.9404 15.6904 17.5 15 17.5C14.3096 17.5 13.75 16.9404 13.75 16.25C13.75 15.5596 14.3096 15 15 15C15.6904 15 16.25 15.5596 16.25 16.25Z" fill="black"/>
<path d="M10 21.25C10 21.9404 9.44036 22.5 8.75 22.5C8.05964 22.5 7.5 21.9404 7.5 21.25C7.5 20.5596 8.05964 20 8.75 20C9.44036 20 10 20.5596 10 21.25Z" fill="black"/>
<path d="M10 16.25C10 16.9404 9.44036 17.5 8.75 17.5C8.05964 17.5 7.5 16.9404 7.5 16.25C7.5 15.5596 8.05964 15 8.75 15C9.44036 15 10 15.5596 10 16.25Z" fill="black"/>
</svg>
