<svg width="30" height="30" viewBox="0 0 30 30" fill="none" xmlns="http://www.w3.org/2000/svg">
<path d="M25.3895 15.8091L26.0366 13.3943C26.7919 10.5754 27.1695 9.166 26.8851 7.94628C26.6606 6.98321 26.1555 6.10835 25.4337 5.43234C24.5196 4.57619 23.1102 4.19853 20.2913 3.44323C17.4725 2.68792 16.063 2.31026 14.8433 2.59466C13.8803 2.81922 13.0054 3.32432 12.3294 4.04608C11.5964 4.82873 11.2141 5.97447 10.6453 8.05702C10.5497 8.40677 10.4489 8.78294 10.3403 9.18825L10.3403 9.18847L9.69323 11.6033C8.93792 14.4221 8.56026 15.8316 8.84466 17.0513C9.06922 18.0144 9.57432 18.8892 10.2961 19.5652C11.2102 20.4214 12.6196 20.799 15.4384 21.5543L15.4385 21.5543L15.4385 21.5543C17.9792 22.2351 19.3749 22.6091 20.5187 22.468C20.6439 22.4526 20.7661 22.431 20.8865 22.4029C21.8495 22.1783 22.7244 21.6732 23.4004 20.9515C24.2566 20.0374 24.6342 18.6279 25.3895 15.8091Z" stroke="black" stroke-width="1.5"/>
<path d="M20.5187 22.4676C20.2581 23.2657 19.7999 23.9877 19.1837 24.5648C18.2696 25.421 16.8602 25.7986 14.0413 26.554C11.2225 27.3093 9.81305 27.6869 8.59333 27.4025C7.63026 27.178 6.7554 26.6729 6.07939 25.9511C5.22324 25.037 4.84558 23.6276 4.09027 20.8087L3.44323 18.3939C2.68792 15.575 2.31026 14.1656 2.59466 12.9459C2.81922 11.9828 3.32432 11.108 4.04608 10.432C4.96019 9.57581 6.36962 9.19816 9.18847 8.44285C9.72176 8.29995 10.2046 8.17058 10.6453 8.05664" stroke="black" stroke-width="1.5"/>
</svg>
