<svg width="30" height="30" viewBox="0 0 30 30" fill="none" xmlns="http://www.w3.org/2000/svg">
<circle cx="12.5" cy="7.5" r="5" stroke="black" stroke-width="1.5"/>
<path d="M22.5 21.875C22.5 24.9816 22.5 27.5 12.5 27.5C2.5 27.5 2.5 24.9816 2.5 21.875C2.5 18.7684 6.97715 16.25 12.5 16.25C18.0228 16.25 22.5 18.7684 22.5 21.875Z" stroke="black" stroke-width="1.5"/>
<path d="M22.6106 15.6731L23.0657 15.0769L22.6106 15.6731ZM23.75 10.8044L23.2181 11.3332C23.3589 11.4748 23.5503 11.5544 23.75 11.5544C23.9497 11.5544 24.1411 11.4748 24.2819 11.3332L23.75 10.8044ZM24.8893 15.6731L24.4343 15.0769L24.8893 15.6731ZM22.6106 15.6731L23.0657 15.0769C22.4689 14.6214 21.9002 14.2352 21.4443 13.7382C21.0141 13.2692 20.75 12.7652 20.75 12.1247H20H19.25C19.25 13.2496 19.7396 14.0988 20.3389 14.7521C20.9124 15.3773 21.649 15.8826 22.1556 16.2693L22.6106 15.6731ZM20 12.1247H20.75C20.75 11.5361 21.093 11.0522 21.5457 10.8518C21.9573 10.6697 22.5686 10.6799 23.2181 11.3332L23.75 10.8044L24.2819 10.2756C23.2439 9.23162 21.9803 9.01919 20.9387 9.48013C19.9383 9.92284 19.25 10.9477 19.25 12.1247H20ZM22.6106 15.6731L22.1556 16.2693C22.3435 16.4127 22.5749 16.5891 22.8164 16.7257C23.0582 16.8626 23.3781 17 23.75 17V16.25V15.5C23.7469 15.5 23.6918 15.4976 23.555 15.4202C23.4179 15.3426 23.2671 15.2306 23.0657 15.0769L22.6106 15.6731ZM24.8893 15.6731L25.3444 16.2693C25.851 15.8826 26.5876 15.3773 27.1611 14.7521C27.7604 14.0988 28.25 13.2496 28.25 12.1247H27.5H26.75C26.75 12.7652 26.4859 13.2692 26.0557 13.7382C25.5998 14.2352 25.0311 14.6214 24.4343 15.0769L24.8893 15.6731ZM27.5 12.1247H28.25C28.25 10.9477 27.5617 9.92284 26.5613 9.48013C25.5197 9.01919 24.2561 9.23162 23.2181 10.2756L23.75 10.8044L24.2819 11.3332C24.9314 10.6799 25.5427 10.6697 25.9543 10.8518C26.407 11.0522 26.75 11.5361 26.75 12.1247H27.5ZM24.8893 15.6731L24.4343 15.0769C24.2329 15.2306 24.0821 15.3426 23.945 15.4202C23.8082 15.4976 23.7531 15.5 23.75 15.5V16.25V17C24.1219 17 24.4418 16.8626 24.6836 16.7257C24.9251 16.5891 25.1565 16.4127 25.3444 16.2693L24.8893 15.6731Z" fill="black"/>
</svg>
