<svg width="30" height="30" viewBox="0 0 30 30" fill="none" xmlns="http://www.w3.org/2000/svg">
<path d="M9.46331 19.2203C11.4454 15.185 12.4365 13.1674 13.863 12.6866C14.6013 12.4378 15.3987 12.4378 16.137 12.6866C17.5635 13.1674 18.5546 15.185 20.5367 19.2204L21.6351 21.4566C22.1472 22.499 22.4032 23.0202 22.4638 23.3754C22.7153 24.8487 21.6253 26.2067 20.1568 26.2495C19.8028 26.2598 19.25 26.1083 18.1444 25.8053C17.5127 25.6322 17.1968 25.5456 16.8808 25.4817C15.6391 25.2304 14.3609 25.2304 13.1192 25.4817C12.8032 25.5456 12.4873 25.6322 11.8556 25.8053C10.75 26.1083 10.1972 26.2598 9.84323 26.2495C8.37475 26.2067 7.2847 24.8487 7.5362 23.3754C7.59682 23.0202 7.85284 22.499 8.36486 21.4566L9.46331 19.2203Z" stroke="black" stroke-width="1.5"/>
<path d="M7.68097 6.90932C8.19574 8.94777 9.65131 10.3051 10.9321 9.94094C12.2128 9.5768 12.8338 7.62913 12.319 5.59068C11.8043 3.55223 10.3487 2.19493 9.06792 2.55906C7.78716 2.9232 7.1662 4.87087 7.68097 6.90932Z" stroke="black" stroke-width="1.5"/>
<path d="M22.319 6.90932C21.8043 8.94777 20.3487 10.3051 19.0679 9.94094C17.7872 9.5768 17.1662 7.62913 17.681 5.59068C18.1957 3.55223 19.6513 2.19493 20.9321 2.55906C22.2128 2.9232 22.8338 4.87087 22.319 6.90932Z" stroke="black" stroke-width="1.5"/>
<path d="M2.75207 15.3714C3.31458 16.8777 4.63709 17.7926 5.706 17.4149C6.77491 17.0372 7.18543 15.5099 6.62293 14.0036C6.06042 12.4973 4.73791 11.5824 3.669 11.9601C2.60009 12.3378 2.18957 13.8651 2.75207 15.3714Z" stroke="black" stroke-width="1.5"/>
<path d="M27.2479 15.3714C26.6854 16.8777 25.3629 17.7926 24.294 17.4149C23.2251 17.0372 22.8146 15.5099 23.3771 14.0036C23.9396 12.4973 25.2621 11.5824 26.331 11.9601C27.3999 12.3378 27.8104 13.8651 27.2479 15.3714Z" stroke="black" stroke-width="1.5"/>
</svg>
