<svg width="16" height="16" viewBox="0 0 16 16" fill="none" xmlns="http://www.w3.org/2000/svg">
<path d="M2.18318 10.1972C1.61656 9.46106 1.33325 9.093 1.33325 8.00008C1.33325 6.90716 1.61656 6.5391 2.18318 5.80297C3.31456 4.33312 5.21199 2.66675 7.99992 2.66675C10.7878 2.66675 12.6853 4.33312 13.8167 5.80297C14.3833 6.5391 14.6666 6.90716 14.6666 8.00008C14.6666 9.093 14.3833 9.46106 13.8167 10.1972C12.6853 11.667 10.7878 13.3334 7.99992 13.3334C5.21199 13.3334 3.31456 11.667 2.18318 10.1972Z" stroke="black"/>
<path d="M10 8C10 9.10457 9.10457 10 8 10C6.89543 10 6 9.10457 6 8C6 6.89543 6.89543 6 8 6C9.10457 6 10 6.89543 10 8Z" stroke="black"/>
</svg>
