<svg width="30" height="30" viewBox="0 0 30 30" fill="none" xmlns="http://www.w3.org/2000/svg">
<path d="M19.4721 4.22746L21.9721 5.5394C24.6617 6.95083 26.0065 7.65654 26.7533 8.92468C27.5 10.1928 27.5 11.7708 27.5 14.9269V15.0731C27.5 18.2292 27.5 19.8072 26.7533 21.0753C26.0065 22.3435 24.6617 23.0492 21.9721 24.4606L19.4721 25.7725C17.2776 26.9242 16.1803 27.5 15 27.5C13.8197 27.5 12.7224 26.9242 10.5279 25.7725L8.02787 24.4606C5.33828 23.0492 3.99349 22.3435 3.24675 21.0753C2.5 19.8072 2.5 18.2292 2.5 15.0731V14.9269C2.5 11.7708 2.5 10.1928 3.24675 8.92468C3.99349 7.65654 5.33828 6.95083 8.02787 5.5394L10.5279 4.22746C12.7224 3.07582 13.8197 2.5 15 2.5C16.1803 2.5 17.2776 3.07582 19.4721 4.22746Z" stroke="black" stroke-width="1.5" stroke-linecap="round"/>
<path d="M26.25 9.375L21.25 11.875M15 15L3.75 9.375M15 15V26.875M15 15C15 15 18.4283 13.2858 20.625 12.1875C20.8691 12.0655 21.25 11.875 21.25 11.875M21.25 11.875V16.25M21.25 11.875L9.375 5.625" stroke="black" stroke-width="1.5" stroke-linecap="round"/>
</svg>
