<svg width="16" height="16" viewBox="0 0 16 16" fill="none" xmlns="http://www.w3.org/2000/svg">
<path d="M1.79282 4.46979C1.68405 4.21597 1.39011 4.0984 1.13629 4.20718C0.882477 4.31595 0.764902 4.60989 0.873679 4.86371L1.33325 4.66675L1.79282 4.46979ZM10.3914 8.88588L10.2082 8.42063V8.42063L10.3914 8.88588ZM6.02755 9.15858C6.17816 8.92712 6.11261 8.61739 5.88115 8.46679C5.64969 8.31619 5.33997 8.38173 5.18937 8.61319L5.60846 8.88588L6.02755 9.15858ZM4.24749 10.0607C4.09689 10.2922 4.16243 10.6019 4.39389 10.7525C4.62535 10.9031 4.93507 10.8376 5.08568 10.6061L4.66658 10.3334L4.24749 10.0607ZM15.1262 4.86371C15.2349 4.60989 15.1174 4.31595 14.8635 4.20718C14.6097 4.0984 14.3158 4.21597 14.207 4.46979L14.6666 4.66675L15.1262 4.86371ZM12.6666 7.41931L12.3244 7.05474V7.05474L12.6666 7.41931ZM13.313 8.77286C13.5083 8.96812 13.8249 8.96812 14.0201 8.77286C14.2154 8.5776 14.2154 8.26102 14.0201 8.06575L13.6666 8.41931L13.313 8.77286ZM7.49992 11.0001C7.49992 11.2762 7.72378 11.5001 7.99992 11.5001C8.27606 11.5001 8.49992 11.2762 8.49992 11.0001H7.99992H7.49992ZM10.9142 10.6061C11.0648 10.8376 11.3745 10.9031 11.6059 10.7525C11.8374 10.6019 11.9029 10.2922 11.7523 10.0607L11.3333 10.3334L10.9142 10.6061ZM3.68681 7.77286C3.88207 7.5776 3.88207 7.26102 3.68681 7.06575C3.49154 6.87049 3.17496 6.87049 2.9797 7.06575L3.33325 7.41931L3.68681 7.77286ZM1.9797 8.06575C1.78444 8.26102 1.78444 8.5776 1.9797 8.77286C2.17496 8.96812 2.49154 8.96812 2.68681 8.77286L2.33325 8.41931L1.9797 8.06575ZM7.99992 9.33342V8.83342C5.85066 8.83342 4.30747 7.76315 3.28298 6.65986C2.77089 6.10837 2.39542 5.55531 2.14832 5.14017C2.02505 4.93308 1.9345 4.76163 1.87552 4.64366C1.84605 4.58472 1.82451 4.53925 1.81077 4.50949C1.8039 4.49462 1.79898 4.48368 1.79599 4.47697C1.7945 4.47361 1.79349 4.47131 1.79296 4.4701C1.7927 4.4695 1.79256 4.46917 1.79253 4.46911C1.79252 4.46909 1.79254 4.46913 1.79259 4.46924C1.79261 4.4693 1.79267 4.46943 1.79268 4.46946C1.79275 4.46962 1.79282 4.46979 1.33325 4.66675C0.873679 4.86371 0.873768 4.86392 0.873865 4.86414C0.873908 4.86424 0.874013 4.86448 0.874098 4.86468C0.874268 4.86508 0.87447 4.86554 0.874703 4.86608C0.875168 4.86716 0.875759 4.86852 0.876474 4.87016C0.877904 4.87344 0.879835 4.87783 0.882269 4.8833C0.887137 4.89425 0.894018 4.90952 0.902936 4.92882C0.920767 4.96743 0.94676 5.02222 0.98109 5.09088C1.04971 5.22812 1.15188 5.42125 1.28902 5.65166C1.56275 6.11152 1.97895 6.72513 2.55019 7.34031C3.69237 8.57035 5.48251 9.83342 7.99992 9.83342V9.33342ZM10.3914 8.88588L10.2082 8.42063C9.56134 8.67526 8.82773 8.83342 7.99992 8.83342V9.33342V9.83342C8.95873 9.83342 9.81631 9.64957 10.5745 9.35114L10.3914 8.88588ZM5.60846 8.88588L5.18937 8.61319L4.24749 10.0607L4.66658 10.3334L5.08568 10.6061L6.02755 9.15858L5.60846 8.88588ZM14.6666 4.66675C14.207 4.46979 14.2071 4.46969 14.2071 4.46959C14.2071 4.46957 14.2071 4.46948 14.2072 4.46943C14.2072 4.46933 14.2072 4.46926 14.2073 4.4692C14.2073 4.4691 14.2073 4.46908 14.2073 4.46914C14.2072 4.46928 14.207 4.46976 14.2067 4.47059C14.2059 4.47223 14.2046 4.47525 14.2027 4.47958C14.1988 4.48823 14.1925 4.50214 14.1838 4.52091C14.1663 4.55846 14.139 4.61538 14.1017 4.68853C14.027 4.83493 13.9126 5.04562 13.7569 5.29555C13.4445 5.79685 12.9708 6.44806 12.3244 7.05474L12.6666 7.41931L13.0088 7.78387C13.7348 7.1024 14.2611 6.37733 14.6056 5.82439C14.7783 5.5472 14.9066 5.31128 14.9925 5.14285C15.0355 5.05858 15.0679 4.99103 15.0901 4.94346C15.1012 4.91967 15.1097 4.90087 15.1157 4.88744C15.1187 4.88073 15.1211 4.87536 15.1228 4.87139C15.1237 4.8694 15.1244 4.86777 15.125 4.86648C15.1252 4.86584 15.1255 4.86529 15.1257 4.86483C15.1258 4.8646 15.1259 4.86439 15.1259 4.8642C15.126 4.86411 15.126 4.86398 15.1261 4.86394C15.1261 4.86382 15.1262 4.86371 14.6666 4.66675ZM12.6666 7.41931L12.3244 7.05474C11.7517 7.59225 11.0492 8.08963 10.2082 8.42063L10.3914 8.88588L10.5745 9.35114C11.5569 8.96446 12.3643 8.38876 13.0088 7.78387L12.6666 7.41931ZM12.6666 7.41931L12.313 7.77286L13.313 8.77286L13.6666 8.41931L14.0201 8.06575L13.0201 7.06575L12.6666 7.41931ZM7.99992 9.33342H7.49992V11.0001H7.99992H8.49992V9.33342H7.99992ZM10.3914 8.88588L9.97228 9.15857L10.9142 10.6061L11.3333 10.3334L11.7523 10.0607L10.8105 8.61319L10.3914 8.88588ZM3.33325 7.41931L2.9797 7.06575L1.9797 8.06575L2.33325 8.41931L2.68681 8.77286L3.68681 7.77286L3.33325 7.41931Z" fill="black"/>
</svg>
