<svg width="30" height="30" viewBox="0 0 30 30" fill="none" xmlns="http://www.w3.org/2000/svg">
<path d="M2.95485 16.1976C2.48054 12.9013 2.24339 11.2531 2.91896 9.84393C3.59454 8.43475 5.03249 7.57817 7.9084 5.86501L9.63944 4.83383C12.2511 3.27811 13.5569 2.50024 14.9998 2.50024C16.4426 2.50024 17.7485 3.27811 20.3601 4.83383L22.0911 5.86501C24.967 7.57817 26.405 8.43475 27.0805 9.84393C27.7561 11.2531 27.519 12.9013 27.0447 16.1976L26.6962 18.6193C26.0869 22.8536 25.7823 24.9707 24.3135 26.2355C22.8446 27.5002 20.6905 27.5002 16.3823 27.5002H13.6172C9.30897 27.5002 7.15487 27.5002 5.68604 26.2355C4.21721 24.9707 3.91257 22.8536 3.3033 18.6193L2.95485 16.1976Z" stroke="black" stroke-width="1.5"/>
<path d="M11.25 20C12.313 20.7879 13.6057 21.25 15 21.25C16.3943 21.25 17.687 20.7879 18.75 20" stroke="black" stroke-width="1.5" stroke-linecap="round"/>
</svg>
