<svg width="30" height="30" viewBox="0 0 30 30" fill="none" xmlns="http://www.w3.org/2000/svg">
<path d="M18.125 24.375H11.875M18.125 24.375C18.125 23.4831 18.125 23.0371 18.1726 22.7412C18.3261 21.7869 18.353 21.7269 18.9615 20.9759C19.1502 20.7431 19.8507 20.1158 21.2516 18.8614C23.1686 17.1449 24.375 14.6508 24.375 11.875C24.375 6.69733 20.1777 2.5 15 2.5C9.82233 2.5 5.625 6.69733 5.625 11.875C5.625 14.6508 6.83138 17.1449 8.74845 18.8614C10.1493 20.1158 10.8498 20.7431 11.0385 20.9759C11.647 21.7269 11.6739 21.7869 11.8274 22.7412C11.875 23.0371 11.875 23.4831 11.875 24.375M18.125 24.375C18.125 25.5433 18.125 26.1274 17.8738 26.5625C17.7092 26.8475 17.4725 27.0842 17.1875 27.2488C16.7524 27.5 16.1683 27.5 15 27.5C13.8317 27.5 13.2476 27.5 12.8125 27.2488C12.5275 27.0842 12.2908 26.8475 12.1262 26.5625C11.875 26.1274 11.875 25.5433 11.875 24.375" stroke="black" stroke-width="1.5"/>
<path d="M15 21.25V18.75" stroke="black" stroke-width="1.5" stroke-linecap="round"/>
<path d="M17.1656 17.5C16.7333 18.2473 15.9254 18.75 15 18.75C14.0747 18.75 13.2667 18.2473 12.8345 17.5" stroke="black" stroke-width="1.5" stroke-linecap="round"/>
</svg>
