<svg width="30" height="30" viewBox="0 0 30 30" fill="none" xmlns="http://www.w3.org/2000/svg">
<path d="M20.9477 15.8458L19.8913 11.7241C19.3406 9.57547 19.0652 8.50117 18.3462 7.9611C18.1051 7.78004 17.8349 7.6457 17.5485 7.56448C16.6939 7.32221 15.7227 7.77704 13.7802 8.68668C12.3418 9.36027 11.6226 9.69706 10.8722 9.93528C10.6113 10.0181 10.3478 10.0919 10.0822 10.1566C9.31838 10.3425 8.53446 10.4268 6.9666 10.5953C4.84931 10.8228 3.79066 10.9366 3.16649 11.5931C2.95723 11.8132 2.78749 12.0707 2.66532 12.3535C2.30092 13.1971 2.57627 14.2714 3.12698 16.42L4.18342 20.5417C5.42524 25.3867 9.55409 26.9107 12.3287 27.3822C13.1751 27.526 13.5984 27.598 14.8837 27.2379C16.1691 26.8779 16.5012 26.5944 17.1655 26.0273C19.3428 24.1687 22.1896 20.6907 20.9477 15.8458Z" stroke="black" stroke-width="1.5"/>
<path d="M20.6251 21.5263C22.8015 20.5883 24.9739 18.8297 25.8167 15.5417L26.8731 11.42C27.4238 9.27142 27.6992 8.19712 27.3348 7.35355C27.2126 7.07074 27.0429 6.81317 26.8336 6.59309C26.2094 5.93662 25.1508 5.82284 23.0335 5.59528C21.4656 5.42677 20.6817 5.34252 19.9179 5.15655C19.6523 5.0919 19.3888 5.0181 19.1279 4.93528C18.3775 4.69706 17.6583 4.36027 16.2199 3.68668C14.2774 2.77704 13.3062 2.32221 12.4516 2.56448C12.1652 2.6457 11.895 2.78004 11.6539 2.9611C10.9348 3.50117 10.6595 4.57547 10.1088 6.72408L9.23438 10.1356" stroke="black" stroke-width="1.5"/>
<path d="M6.57352 16.6195C6.64867 15.8454 7.22496 15.1509 8.06111 14.9268C8.89726 14.7028 9.74363 15.0162 10.1957 15.6489" stroke="black" stroke-width="1.5" stroke-linecap="round"/>
<path d="M23.9746 11.1696C23.8994 10.3955 23.3231 9.70092 22.487 9.47687C21.6508 9.25283 20.8045 9.5662 20.3523 10.199" stroke="black" stroke-width="1.5" stroke-linecap="round"/>
<path d="M13.8184 14.6779C13.8935 13.9038 14.4698 13.2092 15.306 12.9852C16.1421 12.7611 16.9885 13.0745 17.4406 13.7073" stroke="black" stroke-width="1.5" stroke-linecap="round"/>
<path d="M13.7177 8.69357C13.4769 9.0306 13.0085 9.10861 12.6715 8.86782C12.3344 8.62702 12.2564 8.15859 12.4972 7.82156L13.1075 8.25757L13.7177 8.69357ZM15.2421 7.53545L15.048 8.25989C14.5021 8.11361 13.981 8.32502 13.7177 8.69357L13.1075 8.25757L12.4972 7.82156C13.1381 6.92453 14.3099 6.5092 15.4362 6.811L15.2421 7.53545ZM16.3385 8.25757L15.7458 8.71714C15.5827 8.50684 15.3436 8.33909 15.048 8.25989L15.2421 7.53545L15.4362 6.811C16.0519 6.97598 16.5697 7.33182 16.9312 7.798L16.3385 8.25757Z" fill="black"/>
<path d="M16.5007 20.2886C16.5007 20.2886 15.2197 19.3377 12.9854 19.9364C10.7511 20.5351 10.117 21.9991 10.117 21.9991" stroke="black" stroke-width="1.5" stroke-linecap="round"/>
</svg>
