<svg width="30" height="30" viewBox="0 0 30 30" fill="none" xmlns="http://www.w3.org/2000/svg">
<path d="M26.25 20.1136V13.8719C26.25 8.51113 26.25 5.83075 24.6025 4.16538C22.955 2.5 20.3033 2.5 15 2.5C9.6967 2.5 7.04505 2.5 5.39752 4.16538C3.75 5.83075 3.75 8.51113 3.75 13.8719V20.1136C3.75 23.9843 3.75 25.9197 4.66763 26.7654C5.10527 27.1687 5.65768 27.4221 6.24614 27.4894C7.48002 27.6306 8.92092 26.3562 11.8027 23.8073C13.0765 22.6806 13.7134 22.1173 14.4503 21.9688C14.8132 21.8957 15.1868 21.8957 15.5497 21.9688C16.2866 22.1173 16.9235 22.6806 18.1973 23.8073C21.0791 26.3562 22.52 27.6306 23.7539 27.4894C24.3423 27.4221 24.8947 27.1687 25.3324 26.7654C26.25 25.9197 26.25 23.9843 26.25 20.1136Z" stroke="black" stroke-width="1.5"/>
<path d="M18.75 7.5H11.25" stroke="black" stroke-width="1.5" stroke-linecap="round"/>
</svg>
