<svg width="30" height="30" viewBox="0 0 30 30" fill="none" xmlns="http://www.w3.org/2000/svg">
<path d="M13.4809 19.1923L13.9499 18.607L13.4809 19.1923ZM15 12.3762L14.4554 12.8918C14.597 13.0414 14.794 13.1262 15 13.1262C15.206 13.1262 15.403 13.0414 15.5446 12.8918L15 12.3762ZM16.5191 19.1923L16.9881 19.7776L16.5191 19.1923ZM13.4809 19.1923L13.9499 18.607C13.1701 17.9821 12.3825 17.4197 11.7536 16.6998C11.1502 16.0091 10.75 15.2303 10.75 14.2245H10H9.25C9.25 15.6904 9.85462 16.806 10.6239 17.6866C11.3676 18.5379 12.3205 19.2235 13.0119 19.7776L13.4809 19.1923ZM10 14.2245H10.75C10.75 13.2625 11.2842 12.4823 11.9723 12.1625C12.6097 11.8664 13.5211 11.9051 14.4554 12.8918L15 12.3762L15.5446 11.8605C14.229 10.4711 12.6404 10.1981 11.3402 10.8022C10.0908 11.3828 9.25 12.7149 9.25 14.2245H10ZM13.4809 19.1923L13.0119 19.7776C13.2645 19.98 13.5596 20.2158 13.8646 20.397C14.169 20.5778 14.5565 20.75 15 20.75V20V19.25C14.9435 19.25 14.831 19.2263 14.6306 19.1073C14.4309 18.9887 14.2164 18.8206 13.9499 18.607L13.4809 19.1923ZM16.5191 19.1923L16.9881 19.7776C17.6795 19.2235 18.6324 18.5379 19.3761 17.6866C20.1454 16.806 20.75 15.6904 20.75 14.2245H20H19.25C19.25 15.2303 18.8498 16.0091 18.2464 16.6998C17.6175 17.4197 16.8299 17.9821 16.0501 18.607L16.5191 19.1923ZM20 14.2245H20.75C20.75 12.7149 19.9092 11.3828 18.6598 10.8022C17.3596 10.1981 15.771 10.4711 14.4554 11.8605L15 12.3762L15.5446 12.8918C16.4789 11.9051 17.3903 11.8664 18.0277 12.1625C18.7158 12.4823 19.25 13.2625 19.25 14.2245H20ZM16.5191 19.1923L16.0501 18.607C15.7836 18.8206 15.5691 18.9887 15.3694 19.1073C15.169 19.2263 15.0565 19.25 15 19.25V20V20.75C15.4435 20.75 15.831 20.5778 16.1354 20.397C16.4404 20.2158 16.7355 19.98 16.9881 19.7776L16.5191 19.1923Z" fill="black"/>
<path d="M15 2.5V5" stroke="black" stroke-width="1.5" stroke-linecap="round"/>
<path d="M15 25V27.5" stroke="black" stroke-width="1.5" stroke-linecap="round"/>
<path d="M2.5 15L5 15" stroke="black" stroke-width="1.5" stroke-linecap="round"/>
<path d="M25 15L27.5 15" stroke="black" stroke-width="1.5" stroke-linecap="round"/>
<path d="M7.5 22.5L7.92881 22.0712" stroke="black" stroke-width="1.5" stroke-linecap="round"/>
<path d="M22.0708 7.9292L22.4999 7.50012" stroke="black" stroke-width="1.5" stroke-linecap="round"/>
<path d="M22.5 22.5L22.0712 22.0712" stroke="black" stroke-width="1.5" stroke-linecap="round"/>
<path d="M7.9292 7.9292L7.50012 7.50012" stroke="black" stroke-width="1.5" stroke-linecap="round"/>
</svg>
