<svg width="30" height="30" viewBox="0 0 30 30" fill="none" xmlns="http://www.w3.org/2000/svg">
<path d="M15 10V15L18.125 18.125" stroke="black" stroke-width="1.5" stroke-linecap="round" stroke-linejoin="round"/>
<path d="M7.00518 7.00518L6.47485 6.47484V6.47484L7.00518 7.00518ZM5.4222 8.58815L4.67221 8.59192C4.67428 9.00319 5.00716 9.33607 5.41843 9.33814L5.4222 8.58815ZM8.60037 9.35413C9.01458 9.35621 9.35205 9.02212 9.35413 8.60791C9.35621 8.1937 9.02212 7.85623 8.60791 7.85415L8.60414 8.60414L8.60037 9.35413ZM6.1562 5.40244C6.15412 4.98823 5.81665 4.65414 5.40244 4.65622C4.98823 4.6583 4.65414 4.99577 4.65622 5.40998L5.40621 5.40621L6.1562 5.40244ZM4.5975 13.4557C4.65375 13.0453 4.36667 12.667 3.95629 12.6108C3.54592 12.5545 3.16764 12.8416 3.11139 13.252L3.85444 13.3538L4.5975 13.4557ZM22.9149 7.08512L23.4452 6.55479C18.7419 1.85152 11.144 1.80567 6.47485 6.47484L7.00518 7.00518L7.53551 7.53551C11.6089 3.46215 18.257 3.48789 22.3845 7.61545L22.9149 7.08512ZM7.08512 22.9149L6.55479 23.4452C11.2581 28.1485 18.856 28.1943 23.5252 23.5252L22.9948 22.9948L22.4645 22.4645C18.3911 26.5379 11.743 26.5121 7.61545 22.3845L7.08512 22.9149ZM22.9948 22.9948L23.5252 23.5252C28.1943 18.856 28.1485 11.2581 23.4452 6.55479L22.9149 7.08512L22.3845 7.61545C26.5121 11.743 26.5379 18.3911 22.4645 22.4645L22.9948 22.9948ZM7.00518 7.00518L6.47485 6.47484L4.89187 8.05782L5.4222 8.58815L5.95253 9.11848L7.53551 7.53551L7.00518 7.00518ZM5.4222 8.58815L5.41843 9.33814L8.60037 9.35413L8.60414 8.60414L8.60791 7.85415L5.42597 7.83816L5.4222 8.58815ZM5.4222 8.58815L6.17219 8.58438L6.1562 5.40244L5.40621 5.40621L4.65622 5.40998L4.67221 8.59192L5.4222 8.58815ZM3.85444 13.3538L3.11139 13.252C2.61728 16.8568 3.76789 20.6583 6.55479 23.4452L7.08512 22.9149L7.61545 22.3845C5.17183 19.9409 4.16485 16.6121 4.5975 13.4557L3.85444 13.3538Z" fill="black"/>
</svg>
