<svg width="30" height="30" viewBox="0 0 30 30" fill="none" xmlns="http://www.w3.org/2000/svg">
<circle cx="15" cy="13.75" r="2.5" stroke="black" stroke-width="1.5"/>
<path d="M25.625 9.375C25.625 10.0654 25.0654 10.625 24.375 10.625C23.6846 10.625 23.125 10.0654 23.125 9.375C23.125 8.68464 23.6846 8.125 24.375 8.125C25.0654 8.125 25.625 8.68464 25.625 9.375Z" stroke="black" stroke-width="1.5"/>
<path d="M25.625 20C25.625 20.6904 25.0654 21.25 24.375 21.25C23.6846 21.25 23.125 20.6904 23.125 20C23.125 19.3096 23.6846 18.75 24.375 18.75C25.0654 18.75 25.625 19.3096 25.625 20Z" stroke="black" stroke-width="1.5"/>
<path d="M6.875 9.375C6.875 10.0654 6.31536 10.625 5.625 10.625C4.93464 10.625 4.375 10.0654 4.375 9.375C4.375 8.68464 4.93464 8.125 5.625 8.125C6.31536 8.125 6.875 8.68464 6.875 9.375Z" stroke="black" stroke-width="1.5"/>
<path d="M6.875 20C6.875 20.6904 6.31536 21.25 5.625 21.25C4.93464 21.25 4.375 20.6904 4.375 20C4.375 19.3096 4.93464 18.75 5.625 18.75C6.31536 18.75 6.875 19.3096 6.875 20Z" stroke="black" stroke-width="1.5"/>
<path d="M15 3.125C15.6904 3.125 16.25 3.68464 16.25 4.375C16.25 5.06536 15.6904 5.625 15 5.625C14.3096 5.625 13.75 5.06536 13.75 4.375C13.75 3.68464 14.3096 3.125 15 3.125Z" stroke="black" stroke-width="1.5"/>
<path d="M15 23.125C15.6904 23.125 16.25 23.6846 16.25 24.375C16.25 25.0654 15.6904 25.625 15 25.625C14.3096 25.625 13.75 25.0654 13.75 24.375C13.75 23.6846 14.3096 23.125 15 23.125Z" stroke="black" stroke-width="1.5"/>
<path d="M16.875 16.25L23.125 27.5" stroke="black" stroke-width="1.5" stroke-linecap="round"/>
<path d="M13.125 16.25L6.875 27.5" stroke="black" stroke-width="1.5" stroke-linecap="round"/>
<path d="M13.2049 4.72888C14.3239 4.11869 15.6763 4.11869 16.7954 4.72888L22.7881 7.9966C23.9931 8.65365 24.7429 9.91648 24.7429 11.289V17.461C24.7429 18.8335 23.9931 20.0963 22.7881 20.7534L16.7954 24.0211C15.6763 24.6313 14.3239 24.6313 13.2049 24.0211L7.21208 20.7534C6.0071 20.0963 5.25732 18.8335 5.25732 17.461V11.289C5.25732 9.91648 6.0071 8.65365 7.21208 7.9966L13.2049 4.72888Z" stroke="black" stroke-width="1.5"/>
</svg>
